<?xml version="1.0" standalone="no"?> <!DOCTYPE svg PUBLIC "-//W3C//DTD SVG 20010904//EN" "http://www.w3.org/TR/2001/REC-SVG-20010904/DTD/svg10.dtd"> <svg version="1.0" xmlns="http://www.w3.org/2000/svg" width="600.000000pt" height="593.000000pt" viewBox="0 0 600.000000 593.000000" preserveAspectRatio="xMidYMid meet"> <g transform="translate(0.000000,593.000000) scale(0.100000,-0.100000)" fill="#00394d" stroke="none"> <path d="M2775 5840 c-1342 -99 -2441 -1097 -2670 -2424 -36 -211 -28 -752 15 -961 237 -1161 1104 -2055 2241 -2309 463 -103 1058 -78 1506 65 1516 485 2357 2009 1947 3529 -351 1300 -1656 2202 -3039 2100z m639 -71 c1587 -233 2678 -1705 2415 -3259 -345 -2036 -2704 -3047 -4429 -1897 -686 457 -1114 1131 -1247 1962 -23 141 -25 621 -5 760 190 1267 1131 2217 2407 2429 199 34 649 36 859 5z"/> <path d="M2750 5724 c-14 -2 -77 -11 -140 -20 -770 -102 -1508 -557 -1939 -1194 -942 -1391 -429 -3277 1094 -4025 1439 -707 3201 -48 3819 1428 254 606 282 1304 76 1917 -336 1003 -1221 1731 -2280 1876 -101 14 -578 28 -630 18z m496 -125 c1355 -134 2388 -1213 2431 -2540 59 -1841 -1748 -3181 -3517 -2607 -1303 423 -2077 1759 -1784 3078 289 1296 1543 2200 2870 2069z"/> <path d="M3055 5394 c-14 -14 -185 -354 -185 -368 0 -3 20 -6 45 -6 40 0 47 3 56 27 15 39 38 52 95 53 53 0 63 -6 105 -62 18 -24 99 -44 99 -24 0 2 -13 36 -30 76 -16 40 -41 109 -55 154 -49 156 -53 166 -85 166 -16 0 -36 -7 -45 -16z m53 -163 c13 -55 10 -61 -34 -61 -41 0 -43 14 -13 79 22 50 31 46 47 -18z"/> <path d="M2438 5373 c-24 -6 -23 -44 6 -225 28 -169 28 -168 67 -168 l29 0 0 69 c0 67 1 69 28 74 23 4 35 -3 85 -55 56 -57 60 -60 95 -53 45 8 62 22 39 31 -9 3 -33 28 -53 56 l-37 49 22 43 c33 67 20 150 -27 175 -20 11 -218 14 -254 4z m202 -78 c5 -3 10 -22 10 -40 0 -40 -17 -52 -84 -61 l-44 -6 -7 46 c-11 71 -4 80 60 73 30 -3 59 -8 65 -12z"/> <path d="M2015 5241 c-211 -97 -100 -420 128 -371 93 20 147 83 147 173 0 156 -144 259 -275 198z m133 -77 c53 -37 72 -154 32 -194 -87 -87 -236 41 -179 153 28 54 100 74 147 41z"/> <path d="M3834 5201 c-61 -28 -124 -121 -124 -183 0 -110 98 -208 208 -208 118 0 118 71 0 84 -80 9 -118 44 -118 107 0 122 129 177 209 89 50 -55 102 -47 87 13 -21 84 -172 141 -262 98z"/> <path d="M3392 5155 c-18 -39 -16 -42 36 -59 77 -26 136 -31 151 -13 32 39 -21 74 -139 93 -32 5 -37 3 -48 -21z"/> <path d="M1657 5070 c-25 -20 -27 -28 -27 -89 0 -83 0 -83 -61 -60 -59 23 -108 24 -135 5 -26 -20 -15 -28 91 -74 l90 -38 -4 -111 c-4 -131 -1 -138 42 -114 32 18 32 18 35 104 1 48 4 87 6 87 2 0 33 -13 69 -30 81 -37 96 -37 132 -4 34 32 31 34 -87 73 l-96 32 -4 109 c-3 124 -12 141 -51 110z"/> <path d="M4280 4959 c-79 -32 -132 -110 -133 -194 -2 -203 274 -259 367 -74 82 165 -66 335 -234 268z m134 -84 c56 -37 58 -117 4 -172 -76 -78 -188 -45 -188 55 0 91 114 163 184 117z"/> <path d="M2790 4889 c-242 -17 -543 -111 -773 -241 -1100 -622 -1317 -2139 -434 -3036 950 -965 2587 -713 3183 491 522 1054 -1 2313 -1120 2696 -244 84 -530 114 -856 90z m450 -49 c789 -71 1469 -686 1642 -1485 45 -207 36 -638 -18 -849 -259 -1024 -1297 -1634 -2344 -1379 -697 169 -1251 736 -1389 1418 -151 746 112 1474 692 1917 401 306 856 428 1417 378z"/> <path d="M2635 4346 c-37 -16 -75 -63 -187 -226 -312 -458 -493 -722 -575 -836 -106 -150 -109 -159 -55 -150 20 3 123 6 227 6 l190 0 121 183 c202 302 374 552 383 555 5 2 31 -28 57 -65 150 -214 157 -223 170 -212 17 14 161 232 181 275 l16 33 -58 68 c-138 163 -331 363 -359 373 -38 13 -74 12 -111 -4z"/> <path d="M4014 3998 c-28 -22 -36 -23 -295 -26 -205 -3 -269 -6 -272 -16 -11 -27 -461 -722 -483 -746 -16 -16 -27 -21 -34 -14 -8 8 -132 223 -195 338 l-16 30 -176 -265 -175 -264 -96 -8 c-54 -4 -204 -5 -334 -1 l-236 6 -28 -41 c-39 -59 -80 -54 382 -52 l371 1 133 205 c73 113 137 204 144 202 12 -4 126 -190 184 -299 19 -38 39 -68 44 -68 13 0 43 45 327 490 l258 405 54 8 c108 16 421 4 452 -17 34 -23 96 -10 122 27 56 80 -52 167 -131 105z m81 -58 c0 -18 -6 -26 -23 -28 -27 -4 -40 22 -22 44 19 22 45 13 45 -16z"/> <path d="M4355 3769 c-38 -21 -57 -23 -347 -28 -313 -7 -351 -12 -320 -43 10 -10 90 -14 316 -16 l303 -3 29 -30 c55 -57 144 -23 144 56 0 33 -27 75 -49 75 -5 0 -15 2 -23 5 -7 3 -31 -4 -53 -16z m70 -58 c0 -8 -8 -19 -18 -25 -22 -14 -42 11 -25 32 14 16 43 12 43 -7z"/> <path d="M3565 3488 c-9 -13 -151 -224 -316 -470 -165 -247 -307 -448 -314 -448 -8 0 -43 35 -77 78 -106 131 -222 262 -233 262 -5 -1 -32 -33 -59 -73 -27 -40 -83 -118 -125 -174 l-76 -103 -205 1 c-159 0 -211 3 -230 14 -92 53 -199 -51 -124 -120 36 -33 73 -31 119 5 l38 30 213 0 213 0 31 55 c39 67 14 84 235 -160 233 -258 242 -265 308 -265 104 1 104 1 502 590 322 477 501 730 539 761 41 34 12 39 -209 39 -211 0 -214 0 -230 -22z m-1677 -970 c-4 -28 -42 -37 -52 -13 -9 24 1 35 30 35 21 0 25 -4 22 -22z"/> <path d="M1902 2835 c-38 -32 -41 -64 -11 -106 l20 -29 -48 1 c-136 2 -200 14 -228 42 -56 55 -155 22 -155 -53 0 -68 80 -101 153 -63 25 13 71 18 226 22 142 4 195 9 199 18 4 13 -3 17 -53 28 l-30 7 43 19 c45 21 215 23 301 4 38 -9 61 10 61 51 0 22 -2 22 -167 26 -154 3 -170 5 -198 25 -49 36 -77 38 -113 8z m71 -77 c-37 -36 -71 5 -36 44 16 18 17 18 37 -2 l20 -20 -21 -22z m-373 -67 c0 -16 -27 -31 -44 -25 -19 7 -22 40 -3 47 14 5 47 -10 47 -22z"/> <path d="M3470 1900 c-91 -22 -155 -206 -92 -264 23 -20 122 -41 155 -32 63 15 27 56 -49 56 -73 0 -92 38 -59 117 22 53 43 72 84 78 20 3 53 10 74 16 95 25 -11 53 -113 29z"/> <path d="M4056 1903 c-4 -5 -14 -23 -21 -40 -13 -30 -18 -33 -55 -33 -126 0 -193 -170 -85 -215 78 -33 127 -16 149 52 18 54 56 211 56 231 0 13 -32 17 -44 5z m-46 -128 c35 -43 -13 -128 -69 -123 -34 3 -36 5 -39 44 -5 72 69 126 108 79z"/> <path d="M2128 1893 c-17 -4 -39 -62 -54 -139 -10 -53 -19 -49 -49 24 -41 97 -53 112 -86 112 -32 0 -42 -24 -75 -182 -19 -92 -16 -118 15 -118 15 0 23 10 31 43 41 158 41 158 90 45 59 -138 86 -122 140 85 31 116 29 139 -12 130z"/> <path d="M3640 1802 c-27 -27 -50 -85 -50 -125 0 -59 95 -95 161 -62 62 32 95 157 53 199 -29 29 -130 22 -164 -12z m114 -18 c29 -11 21 -81 -13 -115 -50 -49 -91 -34 -91 33 0 62 51 102 104 82z"/> <path d="M4163 1820 c-27 -11 -58 -70 -67 -126 -10 -66 15 -89 97 -89 105 0 129 39 32 51 -96 11 -92 32 5 33 66 1 90 22 90 76 0 34 -5 47 -19 55 -24 12 -107 12 -138 0z m97 -45 c24 -29 4 -45 -55 -45 -59 0 -67 8 -35 40 24 24 72 26 90 5z"/> <path d="M2265 1800 c-70 -15 -115 -66 -115 -130 0 -64 28 -80 139 -80 87 0 113 7 150 39 25 22 41 27 41 13 0 -18 42 -52 65 -52 30 0 30 -3 5 56 l-21 47 41 42 c39 40 51 65 30 65 -22 0 -76 -28 -94 -49 l-19 -21 -18 30 c-14 22 -26 30 -48 30 l-30 0 27 -47 26 -46 -45 -39 c-45 -39 -63 -46 -74 -28 -3 6 -25 10 -48 10 -52 0 -79 14 -45 23 12 4 40 7 60 7 27 0 42 6 57 26 49 62 0 122 -84 104z m35 -65 c0 -10 -11 -15 -35 -15 -33 0 -43 8 -28 23 13 14 63 7 63 -8z"/> <path d="M2635 1767 c-79 -79 -49 -189 51 -189 97 0 176 147 109 200 -46 36 -118 31 -160 -11z m120 -36 c13 -42 -35 -105 -77 -99 -33 4 -38 68 -9 97 27 27 77 28 86 2z"/> <path d="M2871 1772 c-26 -26 -51 -112 -51 -175 0 -39 38 -17 55 31 32 90 44 111 75 127 44 23 39 45 -11 45 -31 0 -47 -6 -68 -28z"/> <path d="M3011 1786 c-14 -17 11 -36 48 -36 26 0 51 -10 51 -21 0 -5 -16 -9 -35 -9 -80 0 -135 -51 -114 -107 16 -43 147 -45 180 -4 28 35 45 130 27 161 -17 31 -135 43 -157 16z m89 -121 c0 -19 -43 -40 -64 -32 -23 9 -20 26 7 37 34 14 57 12 57 -5z"/> <path d="M3230 1743 c-8 -2 -22 -7 -30 -10 -12 -4 -12 -7 4 -19 40 -29 152 -8 132 24 -7 12 -77 15 -106 5z"/> <path d="M1177 4694 c-50 -47 -92 -89 -92 -93 0 -10 247 -270 263 -276 8 -3 57 37 113 92 l99 96 -22 24 c-30 33 -35 31 -110 -44 l-68 -67 -30 29 -30 29 55 56 c59 60 64 73 38 102 -16 18 -19 16 -78 -42 l-61 -60 -29 30 -28 30 62 65 c52 54 60 67 52 84 -22 40 -39 32 -134 -55z"/> <path d="M4627 4544 l-147 -125 51 -59 c79 -91 165 -138 225 -124 144 33 217 183 145 295 -31 49 -109 139 -119 139 -4 0 -74 -57 -155 -126z m194 -32 c74 -118 -26 -232 -149 -170 -79 40 -82 57 -20 115 133 127 125 124 169 55z"/> <path d="M905 4390 c-26 -29 -14 -45 79 -104 97 -63 109 -76 69 -77 -385 -8 -385 -25 1 -259 l39 -23 18 22 c27 33 24 49 -11 69 -91 51 -152 94 -144 102 5 5 70 13 144 18 120 9 136 12 152 32 19 23 24 50 9 50 -4 0 -79 43 -167 95 -179 107 -165 102 -189 75z"/> <path d="M4955 4136 c-100 -52 -159 -89 -157 -97 6 -32 118 -248 128 -248 7 -1 22 8 35 18 l24 19 -42 86 c-51 103 -51 100 -13 116 38 16 56 2 90 -70 24 -52 41 -60 73 -36 22 17 22 20 -12 69 -43 64 -47 83 -17 103 35 22 51 14 83 -47 48 -88 56 -96 88 -79 17 9 25 20 22 31 -9 34 -119 219 -130 219 -7 0 -84 -38 -172 -84z"/> <path d="M712 3490 c-16 -39 -27 -51 -49 -55 -15 -4 -39 -11 -53 -16 l-24 -10 39 -34 40 -33 -13 -46 c-20 -76 -14 -83 36 -41 17 14 38 25 49 25 11 0 34 -11 53 -25 44 -33 43 -34 35 34 l-7 58 42 36 41 35 -43 7 c-60 10 -82 27 -97 74 -15 53 -24 52 -49 -9z"/> <path d="M5230 3491 c-14 -52 -31 -69 -86 -82 -53 -14 -54 -18 -9 -47 38 -24 43 -48 26 -110 -12 -39 -11 -39 45 -6 52 31 83 27 109 -12 22 -34 35 -17 25 36 -9 51 10 97 45 106 37 9 25 28 -21 34 -53 8 -63 15 -85 66 -26 59 -36 62 -49 15z"/> <path d="M700 2972 c-22 -41 -31 -48 -69 -58 -57 -13 -61 -26 -15 -53 39 -23 39 -22 18 -113 -8 -37 7 -36 56 3 l38 31 38 -26 c53 -36 56 -34 49 27 -7 52 -6 54 29 81 40 30 39 46 -2 46 -46 0 -74 22 -90 68 -17 53 -21 53 -52 -6z"/> <path d="M5250 2957 c-22 -46 -30 -53 -65 -61 -73 -16 -73 -15 -32 -48 34 -28 37 -34 37 -84 0 -59 8 -65 47 -34 14 11 32 20 40 20 8 0 26 -9 40 -20 47 -37 62 -25 44 37 -10 36 -4 48 47 82 39 27 35 37 -18 44 -51 7 -68 21 -91 74 -22 53 -19 53 -49 -10z"/> <path d="M761 2483 c-19 -53 -39 -73 -75 -73 -38 0 -69 -18 -47 -27 44 -18 63 -53 59 -109 -5 -62 2 -66 51 -29 36 26 44 25 104 -17 31 -22 37 -6 17 48 -14 36 -6 55 35 83 45 30 44 37 -6 44 -48 6 -70 24 -94 77 -22 49 -28 50 -44 3z"/> <path d="M5187 2433 c-19 -42 -26 -48 -57 -51 -54 -5 -58 -18 -21 -56 32 -33 33 -36 23 -77 -15 -59 -7 -64 44 -34 l45 26 38 -30 c51 -41 52 -40 45 27 l-6 58 43 37 c33 28 38 37 23 37 -59 0 -96 21 -115 66 -25 56 -34 55 -62 -3z"/> <path d="M965 2011 c-39 -16 -50 -53 -54 -179 -2 -33 -46 -6 -62 38 -21 57 -52 63 -57 12 -7 -68 72 -143 133 -128 34 9 48 39 54 121 7 80 25 93 52 38 34 -69 59 -78 59 -22 0 84 -64 145 -125 120z"/> <path d="M4947 1971 c-54 -65 -55 -132 -3 -167 33 -21 59 -14 125 36 42 32 56 38 67 29 22 -18 17 -36 -22 -79 -36 -40 -40 -70 -9 -70 29 0 54 20 80 64 73 125 -28 203 -144 111 -75 -60 -110 -38 -49 31 25 28 29 39 21 52 -17 27 -39 25 -66 -7z"/> <path d="M1053 1745 c-164 -83 -95 -308 78 -256 124 37 162 156 75 240 -46 44 -88 49 -153 16z m117 -55 c53 -53 1 -140 -84 -140 -50 0 -66 13 -66 56 0 73 103 131 150 84z"/> <path d="M4814 1755 c-9 -21 9 -39 80 -83 l61 -37 -120 -8 c-174 -12 -175 -20 -24 -127 120 -84 125 -86 144 -70 22 18 7 38 -63 85 -76 51 -76 51 71 60 152 10 151 20 -13 131 -97 65 -126 76 -136 49z"/> <path d="M1247 1455 c-67 -63 -98 -99 -95 -112 6 -32 38 -27 79 13 l39 38 38 -37 c65 -64 98 -42 42 28 -34 43 -37 57 -15 75 14 11 23 6 63 -33 45 -44 82 -51 82 -16 0 11 -119 139 -129 139 -3 -1 -50 -43 -104 -95z"/> <path d="M4593 1475 c-105 -45 -84 -215 34 -267 76 -34 145 -12 178 58 54 114 -94 261 -212 209z m145 -105 c65 -96 -32 -163 -118 -82 -46 45 -52 78 -17 109 44 41 96 31 135 -27z"/> <path d="M1486 1363 c-4 -11 4 -28 25 -49 30 -31 31 -35 17 -51 -127 -149 -138 -166 -117 -178 23 -15 57 8 117 80 l63 76 32 -19 c61 -37 79 3 25 55 -92 87 -150 118 -162 86z"/> <path d="M4393 1284 c-9 -23 16 -68 88 -161 66 -85 78 -93 99 -68 17 21 10 35 -78 146 -77 98 -97 113 -109 83z"/> <path d="M4220 1169 c-98 -62 -108 -74 -77 -93 13 -8 25 -7 49 7 37 21 34 23 102 -79 59 -89 77 -104 100 -85 15 12 15 16 2 36 -8 12 -36 56 -62 99 l-47 77 33 34 c28 29 31 37 20 50 -17 20 -13 22 -120 -46z"/> <path d="M1717 1212 c-14 -23 -58 -239 -55 -270 5 -58 29 -53 108 24 l70 67 -15 -49 c-37 -118 -38 -174 -6 -174 26 0 221 186 221 211 0 42 -33 28 -107 -43 -83 -81 -81 -85 -42 56 29 108 -3 118 -92 30 -73 -73 -82 -68 -53 30 13 44 24 83 24 87 0 11 -48 40 -53 31z"/> <path d="M4055 1066 c-21 -15 -25 1 40 -153 28 -68 24 -96 -15 -108 -33 -11 -66 19 -111 100 -45 82 -69 104 -89 80 -20 -24 79 -218 120 -235 48 -20 100 -7 139 36 41 45 39 82 -12 207 -35 87 -43 95 -72 73z"/> <path d="M2084 866 c-57 -59 -104 -113 -104 -121 0 -20 32 -19 68 2 41 23 110 -5 119 -48 6 -31 39 -66 51 -55 10 11 15 234 5 280 -14 63 -28 56 -139 -58z m96 7 c0 -20 -22 -83 -29 -83 -4 0 -16 6 -27 14 -18 14 -18 15 10 45 29 30 46 39 46 24z"/> <path d="M3654 897 c-5 -15 49 -193 72 -239 18 -36 44 -36 129 -2 50 20 65 31 65 46 0 22 -5 22 -110 3 -35 -7 -35 -7 -54 47 -53 148 -57 158 -77 158 -11 0 -22 -6 -25 -13z"/> <path d="M2380 886 c0 -4 -11 -57 -25 -118 -32 -140 -32 -160 -3 -156 15 2 25 15 36 46 20 60 41 52 72 -27 18 -43 33 -67 48 -72 31 -12 37 7 17 54 -17 42 -20 77 -5 77 41 0 67 101 37 141 -26 34 -177 81 -177 55z m114 -77 c32 -26 33 -46 2 -60 -42 -20 -76 -4 -76 35 0 52 27 62 74 25z"/> <path d="M3391 835 c-100 -85 -40 -278 87 -278 84 0 141 73 129 165 -15 110 -141 176 -216 113z m116 -50 c27 -19 48 -83 39 -118 -24 -96 -134 -66 -143 40 -7 77 48 118 104 78z"/> <path d="M2689 832 c-19 -4 -25 -34 -35 -178 -8 -120 -12 -115 106 -122 128 -7 141 40 15 56 -59 7 -60 8 -63 40 l-3 32 58 0 c90 0 115 32 35 45 -63 10 -84 23 -80 48 3 21 7 22 76 18 68 -3 72 -2 72 18 0 12 -6 24 -12 26 -21 8 -152 21 -169 17z"/> <path d="M3130 813 c-30 -11 -70 -57 -70 -81 0 -41 18 -60 77 -82 106 -39 102 -70 -9 -70 -66 0 -84 -28 -30 -48 56 -21 65 -22 103 -12 99 27 93 123 -11 175 -84 42 -85 65 -4 65 47 0 54 3 54 20 0 32 -61 51 -110 33z"/> </g> </svg>