<?xml version="1.0" encoding="UTF-8"?>
<!DOCTYPE svg PUBLIC "-//W3C//DTD SVG 1.1//EN" "http://www.w3.org/Graphics/SVG/1.1/DTD/svg11.dtd">
<svg xmlns="http://www.w3.org/2000/svg" version="1.1" width="998px" height="1051px" style="shape-rendering:geometricPrecision; text-rendering:geometricPrecision; image-rendering:optimizeQuality; fill-rule:evenodd; clip-rule:evenodd" xmlns:xlink="http://www.w3.org/1999/xlink">
<g><path style="opacity:1" fill="#e5e8ec" d="M 315.5,6.5 C 450.5,6.33333 585.5,6.5 720.5,7C 784.92,10.4666 841.253,33.4666 889.5,76C 901.696,87.8624 913.53,100.029 925,112.5C 937.857,128.24 949.19,144.907 959,162.5C 974.963,195.062 985.296,229.395 990,265.5C 990.667,407.167 990.667,548.833 990,690.5C 989.897,725.517 989.231,760.517 988,795.5C 980.345,842.333 962.678,884.667 935,922.5C 926.037,933.132 916.703,943.465 907,953.5C 856.892,1005.86 795.392,1035.19 722.5,1041.5C 570.785,1041.98 418.785,1041.48 266.5,1040C 156.926,1023.38 78.4261,965.218 31,865.5C 19.9227,839.192 12.5893,811.859 9,783.5C 7.37927,623.173 7.04594,462.84 8,302.5C 8.33737,199.987 49.8374,118.82 132.5,59C 187.942,22.1303 248.942,4.63035 315.5,6.5 Z"/></g>
<g><path style="opacity:1" fill="#012658" d="M 73.5,897.5 C 76.6599,901.148 79.3265,905.148 81.5,909.5C 74.079,908.504 69.079,911.837 66.5,919.5C 67.1272,920.417 67.4606,921.417 67.5,922.5C 63.7629,918.698 60.7629,914.365 58.5,909.5C 63.3276,909.615 64.6609,907.448 62.5,903C 65.0965,899.248 68.7631,897.415 73.5,897.5 Z"/></g>
<g><path style="opacity:1" fill="#124178" d="M 68.5,889.5 C 70.653,891.794 72.3197,894.46 73.5,897.5C 68.7631,897.415 65.0965,899.248 62.5,903C 64.6609,907.448 63.3276,909.615 58.5,909.5C 55.6869,906.554 53.3535,903.221 51.5,899.5C 54.1498,895.879 57.3165,895.546 61,898.5C 61.772,898.355 62.4387,898.022 63,897.5C 62.5397,893.941 62.7064,890.441 63.5,887C 63.8333,886.833 64.1667,886.667 64.5,886.5C 65.5,887.833 66.5,889.167 67.5,890.5C 68.1067,890.376 68.44,890.043 68.5,889.5 Z"/></g>
<g><path style="opacity:1" fill="#022758" d="M 31.5,781.5 C 36.6999,820.104 49.0332,856.104 68.5,889.5C 68.44,890.043 68.1067,890.376 67.5,890.5C 66.5,889.167 65.5,887.833 64.5,886.5C 64.1667,886.667 63.8333,886.833 63.5,887C 62.7064,890.441 62.5397,893.941 63,897.5C 62.4387,898.022 61.772,898.355 61,898.5C 57.3165,895.546 54.1498,895.879 51.5,899.5C 37.6745,877.03 27.3412,853.03 20.5,827.5C 22.4426,823.518 24.1093,819.352 25.5,815C 26.8333,814.333 28.1667,814.333 29.5,815C 31.0243,817.358 33.0243,819.191 35.5,820.5C 34.3536,808.763 32.6869,796.929 30.5,785C 30.5143,783.615 30.8476,782.449 31.5,781.5 Z"/></g>
<g><path style="opacity:1" fill="#032b5e" d="M 966.5,255.5 C 968.599,268.265 969.766,281.265 970,294.5C 970.667,338.167 970.667,381.833 970,425.5C 968.854,391.058 968.021,356.724 967.5,322.5C 967.688,300.155 967.354,277.822 966.5,255.5 Z"/></g>
<g><path style="opacity:1" fill="#16457d" d="M 980.5,230.5 C 982.756,241.006 984.923,251.673 987,262.5C 987.667,431.5 987.667,600.5 987,769.5C 983.549,833.616 961.215,889.616 920,937.5C 905.439,952.729 890.273,967.229 874.5,981C 832.072,1013.18 784.072,1032.18 730.5,1038C 576.167,1038.67 421.833,1038.67 267.5,1038C 204.288,1029.39 148.955,1004.05 101.5,962C 88.812,949.826 77.4787,936.659 67.5,922.5C 67.4606,921.417 67.1272,920.417 66.5,919.5C 69.079,911.837 74.079,908.504 81.5,909.5C 129.48,971.863 192.814,1008.03 271.5,1018C 310.667,1018.48 349.834,1018.98 389,1019.5C 503.165,1018.75 617.332,1018.25 731.5,1018C 815.243,1006.1 880.243,965.268 926.5,895.5C 956.083,848.175 969.917,796.508 968,740.5C 968.294,601.167 968.127,461.833 967.5,322.5C 968.021,356.724 968.854,391.058 970,425.5C 970.667,381.833 970.667,338.167 970,294.5C 969.766,281.265 968.599,268.265 966.5,255.5C 965.532,253.393 965.198,251.059 965.5,248.5C 965.002,244.781 965.836,241.447 968,238.5C 970.822,241.155 973.989,243.155 977.5,244.5C 976.821,242.332 975.821,240.332 974.5,238.5C 975.137,235.893 976.304,233.56 978,231.5C 978.951,231.116 979.784,230.783 980.5,230.5 Z"/></g>
<g><path style="opacity:1" fill="#13447c" d="M 30.5,627.5 C 30.2081,678.845 30.5415,730.178 31.5,781.5C 30.8476,782.449 30.5143,783.615 30.5,785C 32.6869,796.929 34.3536,808.763 35.5,820.5C 33.0243,819.191 31.0243,817.358 29.5,815C 28.1667,814.333 26.8333,814.333 25.5,815C 24.1093,819.352 22.4426,823.518 20.5,827.5C 15.9936,811.467 12.8269,795.134 11,778.5C 10.5423,661.666 10.0423,544.833 9.5,428C 9.48985,375.828 9.98985,323.661 11,271.5C 12.4872,251.896 16.3205,232.896 22.5,214.5C 23.9582,212.068 25.1249,209.401 26,206.5C 25.2336,211.657 26.7336,216.157 30.5,220C 25.61,222.422 24.2767,226.255 26.5,231.5C 29.7431,228.173 32.0764,224.34 33.5,220C 34.4162,219.626 35.2496,219.126 36,218.5C 36.4221,220.355 36.9221,222.189 37.5,224C 35.9398,226.289 34.7731,228.789 34,231.5C 32.4795,245.185 30.8128,258.852 29,272.5C 28.3333,409.833 28.3333,547.167 29,684.5C 29.1682,665.329 29.6682,646.329 30.5,627.5 Z"/></g>
<g><path style="opacity:1" fill="#f9f9f9" d="M 965.5,248.5 C 965.198,251.059 965.532,253.393 966.5,255.5C 967.354,277.822 967.688,300.155 967.5,322.5C 968.127,461.833 968.294,601.167 968,740.5C 969.917,796.508 956.083,848.175 926.5,895.5C 880.243,965.268 815.243,1006.1 731.5,1018C 617.332,1018.25 503.165,1018.75 389,1019.5C 349.834,1018.98 310.667,1018.48 271.5,1018C 192.814,1008.03 129.48,971.863 81.5,909.5C 79.3265,905.148 76.6599,901.148 73.5,897.5C 72.3197,894.46 70.653,891.794 68.5,889.5C 49.0332,856.104 36.6999,820.104 31.5,781.5C 30.5415,730.178 30.2081,678.845 30.5,627.5C 30.3333,510.833 30.5,394.166 31,277.5C 39.7857,187.143 81.9524,117.31 157.5,68C 197.909,43.8824 241.909,30.5491 289.5,28C 432.833,27.3333 576.167,27.3333 719.5,28C 791.9,33.7402 852.4,63.5735 901,117.5C 933.153,155.807 954.653,199.473 965.5,248.5 Z"/></g>
<g><path style="opacity:1" fill="#002557" d="M 233.5,884.5 C 457.834,884.333 682.167,884.5 906.5,885C 910.211,885.175 913.878,885.675 917.5,886.5C 901.584,912.774 881.584,935.607 857.5,955C 823.898,979.914 786.564,996.58 745.5,1005C 733.569,1006.8 721.569,1007.8 709.5,1008C 573.835,1009.26 438.168,1009.59 302.5,1009C 220.185,1007.08 152.352,975.249 99,913.5C 92.214,904.765 86.0473,895.598 80.5,886C 131.668,885.833 182.668,885.333 233.5,884.5 Z"/></g>
<g><path style="opacity:1" fill="#b2bdca" d="M 315.5,955.5 C 315.5,963.833 315.5,972.167 315.5,980.5C 314.167,980.5 312.833,980.5 311.5,980.5C 312.209,979.596 313.209,979.263 314.5,979.5C 314.174,971.316 314.508,963.316 315.5,955.5 Z"/></g>
<g><path style="opacity:1" fill="#0c1d3d" d="M 600.5,951.5 C 604.247,956.063 606.247,961.396 606.5,967.5C 605.811,968.774 604.977,968.774 604,967.5C 603.5,970 603,972.5 602.5,975C 602.316,976.376 601.649,977.209 600.5,977.5C 601.942,970.119 601.609,962.786 599.5,955.5C 600.363,956.463 601.03,956.463 601.5,955.5C 600.754,954.264 600.421,952.93 600.5,951.5 Z"/></g>
<g><path style="opacity:1" fill="#f3f4f5" d="M 277.5,953.5 C 277.5,962.5 277.5,971.5 277.5,980.5C 272.821,980.666 268.155,980.499 263.5,980C 262.184,971.226 262.184,962.393 263.5,953.5C 268.197,952.172 272.864,952.172 277.5,953.5 Z"/></g>
<g><path style="opacity:1" fill="#f1f2f4" d="M 769.5,951.5 C 769.065,958.383 766.898,964.716 763,970.5C 762.184,971.823 761.017,972.489 759.5,972.5C 752.033,964.864 744.7,957.031 737.5,949C 748.53,948.683 759.197,949.516 769.5,951.5 Z"/></g>
<g><path style="opacity:1" fill="#1d8f9d" d="M 745.5,953.5 C 750.65,952.349 755.984,952.183 761.5,953C 762.428,953.388 763.095,954.055 763.5,955C 762.124,958.927 760.124,962.427 757.5,965.5C 753.119,961.785 749.119,957.785 745.5,953.5 Z"/></g>
<g><path style="opacity:1" fill="#0a1c3b" d="M 554.5,948.5 C 556.099,949.562 557.766,949.562 559.5,948.5C 551.322,956.037 548.322,965.37 550.5,976.5C 549.778,976.082 549.278,975.416 549,974.5C 548.667,970.833 548.333,967.167 548,963.5C 547.221,966.097 546.721,966.097 546.5,963.5C 546.823,957.183 549.49,952.183 554.5,948.5 Z"/></g>
<g><path style="opacity:1" fill="#f4f5f6" d="M 598.5,945.5 C 603.5,945.5 608.5,945.5 613.5,945.5C 618.822,947.324 622.322,950.991 624,956.5C 624.667,959.5 624.667,962.5 624,965.5C 623.5,966.667 622.667,967.5 621.5,968C 616.416,968.778 611.416,968.611 606.5,967.5C 606.247,961.396 604.247,956.063 600.5,951.5C 599.37,949.685 598.704,947.685 598.5,945.5 Z"/></g>
<g><path style="opacity:1" fill="#f6f6f7" d="M 599.5,955.5 C 601.609,962.786 601.942,970.119 600.5,977.5C 585.241,978.649 569.908,978.816 554.5,978C 553.099,977.59 551.766,977.09 550.5,976.5C 548.322,965.37 551.322,956.037 559.5,948.5C 561.792,947.109 564.292,946.109 567,945.5C 574.143,946.244 581.309,946.744 588.5,947C 592.998,948.898 596.664,951.731 599.5,955.5 Z"/></g>
<g><path style="opacity:1" fill="#f2f3f4" d="M 550.5,945.5 C 552.973,945.088 554.306,946.088 554.5,948.5C 549.49,952.183 546.823,957.183 546.5,963.5C 545.549,964.919 545.216,966.585 545.5,968.5C 539.575,968.808 533.741,968.475 528,967.5C 526.508,959.822 528.342,953.156 533.5,947.5C 538.975,945.717 544.641,945.051 550.5,945.5 Z"/></g>
<g><path style="opacity:1" fill="#091c3b" d="M 534.5,933.5 C 535.879,936.386 537.879,938.886 540.5,941C 543.868,941.543 547.201,941.376 550.5,940.5C 549.571,941.315 548.571,942.148 547.5,943C 549.119,943.236 550.119,944.069 550.5,945.5C 544.641,945.051 538.975,945.717 533.5,947.5C 533.062,947.565 532.728,947.399 532.5,947C 534.056,944.386 536.39,943.053 539.5,943C 536.108,940.715 534.441,937.548 534.5,933.5 Z"/></g>
<g><path style="opacity:1" fill="#aebac6" d="M 245.5,939.5 C 249.634,938.515 253.968,938.182 258.5,938.5C 258.5,952.5 258.5,966.5 258.5,980.5C 253.968,980.818 249.634,980.485 245.5,979.5C 249.5,979.5 253.5,979.5 257.5,979.5C 257.5,966.167 257.5,952.833 257.5,939.5C 253.5,939.5 249.5,939.5 245.5,939.5 Z"/></g>
<g><path style="opacity:1" fill="#f8f8f9" d="M 245.5,939.5 C 249.5,939.5 253.5,939.5 257.5,939.5C 257.5,952.833 257.5,966.167 257.5,979.5C 253.5,979.5 249.5,979.5 245.5,979.5C 244.883,979.389 244.383,979.056 244,978.5C 243.333,966.167 243.333,953.833 244,941.5C 244.278,940.584 244.778,939.918 245.5,939.5 Z"/></g>
<g><path style="opacity:1" fill="#081b3a" d="M 596.5,934.5 C 599.233,938.871 603.233,941.204 608.5,941.5C 606.031,942.317 603.365,942.817 600.5,943C 604.5,943.333 608.5,943.667 612.5,944C 613.056,944.383 613.389,944.883 613.5,945.5C 608.5,945.5 603.5,945.5 598.5,945.5C 597.25,945.577 596.417,946.244 596,947.5C 595.833,947 595.667,946.5 595.5,946C 595.555,942.151 595.888,938.317 596.5,934.5 Z"/></g>
<g><path style="opacity:1" fill="#f8f8f8" d="M 282.5,930.5 C 287.167,930.5 291.833,930.5 296.5,930.5C 296.5,947.167 296.5,963.833 296.5,980.5C 291.637,980.819 286.97,980.486 282.5,979.5C 282.5,963.167 282.5,946.833 282.5,930.5 Z"/></g>
<g><path style="opacity:1" fill="#061939" d="M 282.5,930.5 C 282.5,946.833 282.5,963.167 282.5,979.5C 280.65,973.105 279.484,966.438 279,959.5C 278.829,966.679 278.329,973.679 277.5,980.5C 277.5,971.5 277.5,962.5 277.5,953.5C 278.5,953.5 279.5,953.5 280.5,953.5C 279.868,945.427 280.535,937.76 282.5,930.5 Z"/></g>
<g><path style="opacity:1" fill="#0a1c3d" d="M 561.5,920.5 C 560.099,924.543 560.266,928.543 562,932.5C 564.362,936.027 567.196,939.027 570.5,941.5C 566.175,941.169 562.508,939.502 559.5,936.5C 559.833,935.833 560.167,935.167 560.5,934.5C 559.644,931.721 558.977,928.888 558.5,926C 558.613,923.601 559.613,921.768 561.5,920.5 Z"/></g>
<g><path style="opacity:1" fill="#f2f3f4" d="M 608.5,941.5 C 603.233,941.204 599.233,938.871 596.5,934.5C 596.562,923.251 601.896,919.084 612.5,922C 620.13,930.394 618.797,936.894 608.5,941.5 Z"/></g>
<g><path style="opacity:1" fill="#f3f4f5" d="M 550.5,940.5 C 547.201,941.376 543.868,941.543 540.5,941C 537.879,938.886 535.879,936.386 534.5,933.5C 534.625,924.876 538.958,920.376 547.5,920C 554.358,922.549 556.858,927.383 555,934.5C 553.668,936.66 552.168,938.66 550.5,940.5 Z"/></g>
<g><path style="opacity:1" fill="#124178" d="M 727.5,915.5 C 728.209,916.404 729.209,916.737 730.5,916.5C 730.867,920.967 730.367,925.3 729,929.5C 728.439,930.022 727.772,930.355 727,930.5C 725.287,928.957 723.787,927.291 722.5,925.5C 718.63,919.365 720.297,916.032 727.5,915.5 Z"/></g>
<g><path style="opacity:1" fill="#0d8e9b" d="M 735.5,914.5 C 751.845,916.845 761.178,926.178 763.5,942.5C 761.833,942.5 760.167,942.5 758.5,942.5C 755.15,942.335 751.817,942.502 748.5,943C 747.263,943.232 746.263,943.732 745.5,944.5C 742.163,945.739 738.83,945.739 735.5,944.5C 734.194,934.44 734.194,924.44 735.5,914.5 Z"/></g>
<g><path style="opacity:1" fill="#f4f5f6" d="M 570.5,941.5 C 567.196,939.027 564.362,936.027 562,932.5C 560.266,928.543 560.099,924.543 561.5,920.5C 570.624,909.06 580.124,908.726 590,919.5C 592.966,935.04 586.466,942.374 570.5,941.5 Z"/></g>
<g><path style="opacity:1" fill="#f4f4f5" d="M 315.5,955.5 C 314.508,963.316 314.174,971.316 314.5,979.5C 313.209,979.263 312.209,979.596 311.5,980.5C 308.167,980.5 304.833,980.5 301.5,980.5C 301.019,958.165 300.853,935.832 301,913.5C 305.737,912.531 310.57,912.197 315.5,912.5C 315.5,926.833 315.5,941.167 315.5,955.5 Z"/></g>
<g><path style="opacity:1" fill="#ebedef" d="M 747.5,911.5 C 756.812,915.98 763.645,922.98 768,932.5C 769.079,935.063 769.579,937.729 769.5,940.5C 769.799,942.604 769.466,944.604 768.5,946.5C 767.264,945.754 765.93,945.421 764.5,945.5C 761.023,944.677 757.356,944.177 753.5,944C 755.382,943.802 757.048,943.302 758.5,942.5C 760.167,942.5 761.833,942.5 763.5,942.5C 761.178,926.178 751.845,916.845 735.5,914.5C 734.032,913.221 733.365,911.554 733.5,909.5C 738.267,909.526 742.934,910.193 747.5,911.5 Z"/></g>
<g><path style="opacity:1" fill="#f6f6f7" d="M 727.5,915.5 C 720.297,916.032 718.63,919.365 722.5,925.5C 725.314,932.468 728.147,939.468 731,946.5C 739.757,956.084 747.924,966.084 755.5,976.5C 746.571,984.063 736.238,986.563 724.5,984C 702.047,977.309 692.547,962.143 696,938.5C 698.133,930.225 702.3,923.225 708.5,917.5C 715.318,912.449 722.985,909.783 731.5,909.5C 732.109,912.878 730.776,914.878 727.5,915.5 Z"/></g>
<g><path style="opacity:1" fill="#102345" d="M 747.5,911.5 C 742.934,910.193 738.267,909.526 733.5,909.5C 733.365,911.554 734.032,913.221 735.5,914.5C 734.194,924.44 734.194,934.44 735.5,944.5C 738.83,945.739 742.163,945.739 745.5,944.5C 751.797,945.32 758.131,945.653 764.5,945.5C 765.93,945.421 767.264,945.754 768.5,946.5C 769.466,944.604 769.799,942.604 769.5,940.5C 770.649,940.791 771.316,941.624 771.5,943C 771.088,946.027 770.421,948.86 769.5,951.5C 759.197,949.516 748.53,948.683 737.5,949C 744.7,957.031 752.033,964.864 759.5,972.5C 758.5,974.167 757.167,975.5 755.5,976.5C 747.924,966.084 739.757,956.084 731,946.5C 728.147,939.468 725.314,932.468 722.5,925.5C 723.787,927.291 725.287,928.957 727,930.5C 727.772,930.355 728.439,930.022 729,929.5C 730.367,925.3 730.867,920.967 730.5,916.5C 729.209,916.737 728.209,916.404 727.5,915.5C 730.776,914.878 732.109,912.878 731.5,909.5C 722.985,909.783 715.318,912.449 708.5,917.5C 709.475,915.807 710.808,914.307 712.5,913C 722.561,907.421 733.228,906.087 744.5,909C 745.942,909.377 746.942,910.21 747.5,911.5 Z"/></g>
<g><path style="opacity:1" fill="#7c94a6" d="M 758.5,942.5 C 757.048,943.302 755.382,943.802 753.5,944C 757.356,944.177 761.023,944.677 764.5,945.5C 758.131,945.653 751.797,945.32 745.5,944.5C 746.263,943.732 747.263,943.232 748.5,943C 751.817,942.502 755.15,942.335 758.5,942.5 Z"/></g>
<g><path style="opacity:1" fill="#f2f3f5" d="M 417.5,902.5 C 419.527,902.338 421.527,902.505 423.5,903C 427.66,907.178 432.327,910.511 437.5,913C 440.5,913.333 443.5,913.667 446.5,914C 447.931,914.465 449.097,915.299 450,916.5C 451.632,937.436 451.966,958.436 451,979.5C 450.215,981.286 449.049,982.786 447.5,984C 441.22,985.046 434.887,985.546 428.5,985.5C 417.161,985.133 405.828,984.633 394.5,984C 392.333,983.167 390.833,981.667 390,979.5C 388.381,959.218 388.048,938.885 389,918.5C 389.5,916.667 390.667,915.5 392.5,915C 395.753,913.964 399.086,913.297 402.5,913C 403.833,912.333 404.833,911.333 405.5,910C 407.5,909.667 409.5,909.333 411.5,909C 413.085,906.256 415.085,904.089 417.5,902.5 Z"/></g>
<g><path style="opacity:1" fill="#1b2c50" d="M 406.5,924.5 C 404.616,924.288 403.283,923.288 402.5,921.5C 400.604,920.534 398.604,920.201 396.5,920.5C 397.151,939.159 397.651,957.825 398,976.5C 403.6,977.146 409.1,977.813 414.5,978.5C 408.242,978.81 402.076,978.476 396,977.5C 395.5,958.17 395.333,938.836 395.5,919.5C 398.518,919.335 401.518,919.502 404.5,920C 405.267,921.47 405.933,922.97 406.5,924.5 Z"/></g>
<g><path style="opacity:1" fill="#0f1f3f" d="M 444.5,971.5 C 443.542,954.535 443.209,937.535 443.5,920.5C 439.838,919.637 437.672,920.97 437,924.5C 436.25,925.126 435.416,925.626 434.5,926C 429.833,926.167 425.167,926.333 420.5,926.5C 415.449,926.493 410.783,925.827 406.5,924.5C 415.452,925.611 424.452,925.777 433.5,925C 436.035,924.072 437.035,922.238 436.5,919.5C 439.5,919.5 442.5,919.5 445.5,919.5C 445.83,937.008 445.497,954.341 444.5,971.5 Z"/></g>
<g><path style="opacity:1" fill="#012556" d="M 406.5,924.5 C 410.783,925.827 415.449,926.493 420.5,926.5C 425.167,926.333 429.833,926.167 434.5,926C 435.416,925.626 436.25,925.126 437,924.5C 437.672,920.97 439.838,919.637 443.5,920.5C 443.209,937.535 443.542,954.535 444.5,971.5C 444.5,973.833 444.5,976.167 444.5,978.5C 434.5,978.5 424.5,978.5 414.5,978.5C 409.1,977.813 403.6,977.146 398,976.5C 397.651,957.825 397.151,939.159 396.5,920.5C 398.604,920.201 400.604,920.534 402.5,921.5C 403.283,923.288 404.616,924.288 406.5,924.5 Z"/></g>
<g><path style="opacity:1" fill="#dce1e6" d="M 422.5,956.5 C 427.511,956.334 432.511,956.501 437.5,957C 440.167,958.333 440.167,959.667 437.5,961C 432.177,961.499 426.844,961.666 421.5,961.5C 421.366,959.708 421.699,958.042 422.5,956.5 Z"/></g>
<g><path style="opacity:1" fill="#e7e9ed" d="M 413.5,953.5 C 414.5,953.5 415.5,953.5 416.5,953.5C 414.904,957.745 412.904,961.745 410.5,965.5C 406.299,965.149 403.299,962.983 401.5,959C 403.911,957.411 406.078,957.911 408,960.5C 410.325,958.499 412.158,956.166 413.5,953.5 Z"/></g>
<g><path style="opacity:1" fill="#e8eaed" d="M 420.5,938.5 C 425.833,938.5 431.167,938.5 436.5,938.5C 437.5,938.5 438.5,938.5 439.5,938.5C 439.64,940.124 438.973,941.29 437.5,942C 432.167,942.667 426.833,942.667 421.5,942C 420.663,940.989 420.33,939.822 420.5,938.5 Z"/></g>
<g><path style="opacity:1" fill="#e7e9ed" d="M 416.5,933.5 C 416.657,934.873 416.49,936.207 416,937.5C 413.665,940.665 411.165,943.665 408.5,946.5C 404.395,945.252 402.562,942.585 403,938.5C 404.722,938.038 406.555,937.872 408.5,938C 410.817,935.843 413.484,934.343 416.5,933.5 Z"/></g>
<g><path style="opacity:1" fill="#0c1e3e" d="M 416.5,933.5 C 419.226,933.264 421.559,934.097 423.5,936C 427.5,936.333 431.5,936.667 435.5,937C 436.056,937.383 436.389,937.883 436.5,938.5C 431.167,938.5 425.833,938.5 420.5,938.5C 419.732,939.263 419.232,940.263 419,941.5C 417.951,940.483 416.784,940.316 415.5,941C 413.077,942.571 411.744,944.737 411.5,947.5C 410.209,947.737 409.209,947.404 408.5,946.5C 411.165,943.665 413.665,940.665 416,937.5C 416.49,936.207 416.657,934.873 416.5,933.5 Z"/></g>
<g><path style="opacity:1" fill="#2b3754" d="M 419.5,908.5 C 424.073,908.976 424.573,910.642 421,913.5C 418.389,912.5 417.889,910.833 419.5,908.5 Z"/></g>
<g><path style="opacity:1" fill="#264d82" d="M 260.5,856.5 C 257.161,859.312 253.995,858.979 251,855.5C 250.355,851.15 252.188,848.983 256.5,849C 252.103,854.148 253.436,856.648 260.5,856.5 Z"/></g>
<g><path style="opacity:1" fill="#224b80" d="M 340.5,840.5 C 347.571,839.583 351.237,842.583 351.5,849.5C 350.5,849.5 349.5,849.5 348.5,849.5C 348.843,843.822 346.176,841.656 340.5,843C 338.477,846.183 337.977,849.683 339,853.5C 339.833,854.333 340.667,855.167 341.5,856C 344.277,856.051 346.943,856.218 349.5,856.5C 344.616,859.564 340.283,858.897 336.5,854.5C 334.775,852.043 334.275,849.377 335,846.5C 337.04,844.63 338.873,842.63 340.5,840.5 Z"/></g>
<g><path style="opacity:1" fill="#2d5284" d="M 682.5,840.5 C 683.458,840.953 684.292,841.619 685,842.5C 686.667,846.167 688.333,849.833 690,853.5C 692.377,849.71 694.377,845.71 696,841.5C 696.893,840.289 697.726,840.289 698.5,841.5C 695.548,849.405 692.048,857.072 688,864.5C 686.312,866.848 684.478,867.015 682.5,865C 683.729,863.471 685.229,862.304 687,861.5C 687.167,860.333 687.333,859.167 687.5,858C 685.727,852.182 684.06,846.348 682.5,840.5 Z"/></g>
<g><path style="opacity:1" fill="#2a5083" d="M 613.5,840.5 C 626.029,840.236 629.363,845.569 623.5,856.5C 615.31,859.996 610.31,857.33 608.5,848.5C 608.667,847.5 608.833,846.5 609,845.5C 610.707,843.963 612.207,842.296 613.5,840.5 Z"/></g>
<g><path style="opacity:1" fill="#f2f3f5" d="M 614.5,843.5 C 622,842.166 624.833,845.166 623,852.5C 618.993,857.975 615.326,857.642 612,851.5C 611.018,848.225 611.851,845.559 614.5,843.5 Z"/></g>
<g><path style="opacity:1" fill="#294f83" d="M 502.5,840.5 C 512.878,840.031 516.712,844.698 514,854.5C 507.75,861.532 502.417,860.866 498,852.5C 497.333,850.167 497.333,847.833 498,845.5C 499.366,843.638 500.866,841.972 502.5,840.5 Z"/></g>
<g><path style="opacity:1" fill="#f1f2f3" d="M 502.5,843.5 C 512.267,843.073 514.6,846.906 509.5,855C 503.797,857.306 500.797,855.306 500.5,849C 500.395,846.822 501.061,844.988 502.5,843.5 Z"/></g>
<g><path style="opacity:1" fill="#274e82" d="M 464.5,840.5 C 479.054,838.656 483.887,844.656 479,858.5C 477.731,854.351 477.065,850.018 477,845.5C 474.182,841.576 471.182,841.576 468,845.5C 467.667,849.5 467.333,853.5 467,857.5C 466.333,858.833 465.667,858.833 465,857.5C 464.501,851.843 464.334,846.176 464.5,840.5 Z"/></g>
<g><path style="opacity:1" fill="#244c81" d="M 411.5,840.5 C 412.458,840.953 413.292,841.619 414,842.5C 418.018,839.561 421.685,839.895 425,843.5C 425.939,848.681 425.606,853.681 424,858.5C 422.726,854.015 422.059,849.348 422,844.5C 418.949,841.626 416.282,841.959 414,845.5C 413.667,849.5 413.333,853.5 413,857.5C 412.333,858.833 411.667,858.833 411,857.5C 410.215,851.751 410.382,846.084 411.5,840.5 Z"/></g>
<g><path style="opacity:1" fill="#274e82" d="M 753.5,840.5 C 758.699,840.014 763.699,840.681 768.5,842.5C 772.717,839.514 776.551,839.847 780,843.5C 780.667,848.167 780.667,852.833 780,857.5C 779.333,858.833 778.667,858.833 778,857.5C 777.667,853.167 777.333,848.833 777,844.5C 773.912,842.33 771.245,842.997 769,846.5C 767.747,862.418 766.414,862.418 765,846.5C 763.231,841.584 760.564,841.251 757,845.5C 756.935,850.018 756.269,854.351 755,858.5C 753.547,852.683 753.047,846.683 753.5,840.5 Z"/></g>
<g><path style="opacity:1" fill="#2d5184" d="M 737.5,840.5 C 745.639,839.305 748.973,842.638 747.5,850.5C 745.869,848.941 745.036,846.941 745,844.5C 740.769,841.349 737.602,842.183 735.5,847C 736.196,849.118 736.363,851.284 736,853.5C 738.433,855.626 741.266,856.959 744.5,857.5C 736.241,859.287 732.074,855.953 732,847.5C 732.967,844.379 734.8,842.046 737.5,840.5 Z"/></g>
<g><path style="opacity:1" fill="#284f82" d="M 706.5,840.5 C 713.136,841.022 713.136,841.855 706.5,843C 705.167,844.333 705.167,845.667 706.5,847C 708.833,848 711.167,849 713.5,850C 715.36,855.332 713.36,858.165 707.5,858.5C 705.519,858.563 703.852,857.896 702.5,856.5C 705.099,855.969 707.765,855.802 710.5,856C 713.167,854.333 713.167,852.667 710.5,851C 700.545,849.963 699.212,846.463 706.5,840.5 Z"/></g>
<g><path style="opacity:1" fill="#254d81" d="M 632.5,840.5 C 633.735,840.721 634.735,841.388 635.5,842.5C 642.941,839.168 646.941,841.668 647.5,850C 647.518,852.389 646.851,854.556 645.5,856.5C 644.673,852.541 644.173,848.541 644,844.5C 640.729,841.803 637.729,842.136 635,845.5C 634.667,849.5 634.333,853.5 634,857.5C 633.333,858.833 632.667,858.833 632,857.5C 631.215,851.751 631.382,846.084 632.5,840.5 Z"/></g>
<g><path style="opacity:1" fill="#254d82" d="M 570.5,840.5 C 575.355,839.605 578.855,841.272 581,845.5C 581.499,849.821 581.666,854.154 581.5,858.5C 577.486,858.666 573.486,858.499 569.5,858C 565.405,856.569 564.738,854.402 567.5,851.5C 571.153,858.163 574.819,858.163 578.5,851.5C 577.833,850.833 577.167,850.167 576.5,849.5C 579.624,845.552 578.624,843.218 573.5,842.5C 571.527,843.331 569.527,843.498 567.5,843C 568.571,842.148 569.571,841.315 570.5,840.5 Z"/></g>
<g><path style="opacity:1" fill="#244c81" d="M 539.5,840.5 C 542.724,840.203 545.724,840.87 548.5,842.5C 557.205,838.581 561.538,841.414 561.5,851C 561.536,853.63 561.036,856.13 560,858.5C 558.731,854.351 558.065,850.018 558,845.5C 555.782,843.381 553.282,843.048 550.5,844.5C 549.996,849.296 549.162,853.962 548,858.5C 546.731,854.351 546.065,850.018 546,845.5C 543.333,841.5 540.667,841.5 538,845.5C 537.895,849.37 537.062,853.037 535.5,856.5C 534.506,851.544 534.173,846.544 534.5,841.5C 535.822,841.33 536.989,841.663 538,842.5C 538.717,841.956 539.217,841.289 539.5,840.5 Z"/></g>
<g><path style="opacity:1" fill="#234c81" d="M 521.5,840.5 C 522.458,840.953 523.292,841.619 524,842.5C 525.241,840.579 526.741,840.246 528.5,841.5C 527.135,842.941 525.635,844.274 524,845.5C 523.935,850.018 523.269,854.351 522,858.5C 520.174,852.593 520.007,846.593 521.5,840.5 Z"/></g>
<g><path style="opacity:1" fill="#2c5184" d="M 393.5,840.5 C 400.182,839.373 403.682,842.04 404,848.5C 403.586,848.957 403.086,849.291 402.5,849.5C 400.728,841.474 397.061,840.474 391.5,846.5C 391.977,847.478 392.643,848.311 393.5,849C 390.866,853.445 392.366,855.945 398,856.5C 405.511,853.885 406.011,854.719 399.5,859C 391.71,858.538 388.21,854.371 389,846.5C 390.332,844.34 391.832,842.34 393.5,840.5 Z"/></g>
<g><path style="opacity:1" fill="#284e83" d="M 356.5,840.5 C 361.699,840.014 366.699,840.681 371.5,842.5C 375.717,839.514 379.551,839.847 383,843.5C 383.667,847.833 383.667,852.167 383,856.5C 382.667,856.833 382.333,857.167 382,857.5C 381.24,853.181 380.573,848.848 380,844.5C 376.912,842.33 374.245,842.997 372,846.5C 371.929,850.687 371.262,854.687 370,858.5C 368.726,854.015 368.059,849.348 368,844.5C 364.97,841.64 362.303,841.973 360,845.5C 359.935,850.018 359.269,854.351 358,858.5C 356.547,852.683 356.047,846.683 356.5,840.5 Z"/></g>
<g><path style="opacity:1" fill="#254d82" d="M 316.5,840.5 C 321.167,840.5 325.833,840.5 330.5,840.5C 330.829,847.241 330.329,853.908 329,860.5C 324.55,867.074 319.383,867.741 313.5,862.5C 314.167,862.167 314.833,861.833 315.5,861.5C 321.086,865.047 325.086,863.713 327.5,857.5C 327,857.167 326.5,856.833 326,856.5C 318.336,859.916 313.836,857.416 312.5,849C 313.174,845.82 314.508,842.986 316.5,840.5 Z"/></g>
<g><path style="opacity:1" fill="#f0f1f3" d="M 319.5,842.5 C 325.477,842.642 327.977,845.642 327,851.5C 323.693,856.298 320.026,856.631 316,852.5C 314.756,848.191 315.923,844.858 319.5,842.5 Z"/></g>
<g><path style="opacity:1" fill="#2a5083" d="M 299.5,840.5 C 302.961,840.146 305.461,841.479 307,844.5C 307.667,848.833 307.667,853.167 307,857.5C 306.586,857.957 306.086,858.291 305.5,858.5C 302.572,858.104 299.572,857.937 296.5,858C 293.108,857.05 291.941,854.883 293,851.5C 294.037,848.616 295.871,847.95 298.5,849.5C 295.582,851.008 294.916,853.175 296.5,856C 299.497,856.755 301.997,855.922 304,853.5C 303.333,850.5 303.333,847.5 304,844.5C 301.2,843.875 298.366,843.208 295.5,842.5C 296.949,841.828 298.282,841.161 299.5,840.5 Z"/></g>
<g><path style="opacity:1" fill="#244c81" d="M 272.5,840.5 C 273.75,840.577 274.583,841.244 275,842.5C 283.326,838.796 287.493,841.629 287.5,851C 287.536,853.63 287.036,856.13 286,858.5C 284.796,854.284 284.13,849.951 284,845.5C 281.912,841.821 279.245,841.488 276,844.5C 274.796,848.716 274.13,853.049 274,857.5C 273.333,858.833 272.667,858.833 272,857.5C 271.215,851.751 271.382,846.084 272.5,840.5 Z"/></g>
<g><path style="opacity:1" fill="#284e82" d="M 260.5,856.5 C 262.419,852.731 262.919,848.731 262,844.5C 261.196,843.196 260.029,842.529 258.5,842.5C 256.44,843.528 254.44,843.528 252.5,842.5C 252.709,841.914 253.043,841.414 253.5,841C 256.928,840.299 260.262,840.632 263.5,842C 264.126,842.75 264.626,843.584 265,844.5C 265.499,848.821 265.666,853.154 265.5,857.5C 263.784,857.371 262.117,857.038 260.5,856.5 Z"/></g>
<g><path style="opacity:1" fill="#224b81" d="M 721.5,835.5 C 723.213,836.635 723.88,838.302 723.5,840.5C 729.909,841.074 730.076,842.408 724,844.5C 723.333,847.833 723.333,851.167 724,854.5C 725.586,855.376 727.086,856.376 728.5,857.5C 726.159,858.712 723.993,858.378 722,856.5C 721.158,851.398 719.992,846.398 718.5,841.5C 719.883,839.68 720.883,837.68 721.5,835.5 Z"/></g>
<g><path style="opacity:1" fill="#1e477b" d="M 587.5,835.5 C 589.805,837.781 592.472,839.781 595.5,841.5C 591.665,842.438 589.998,844.938 590.5,849C 589.493,853.495 591.16,856.328 595.5,857.5C 593.046,858.886 591.046,858.386 589.5,856C 588.906,851.071 587.573,846.405 585.5,842C 587.013,840.121 587.679,837.954 587.5,835.5 Z"/></g>
<g><path style="opacity:1" fill="#204a80" d="M 433.5,835.5 C 435.213,836.635 435.88,838.302 435.5,840.5C 437.665,840.116 439.332,840.783 440.5,842.5C 438.955,843.452 437.288,843.785 435.5,843.5C 435.334,847.514 435.501,851.514 436,855.5C 440.711,857.391 440.544,858.224 435.5,858C 434.299,857.097 433.465,855.931 433,854.5C 432.667,851.167 432.333,847.833 432,844.5C 431.355,843.354 430.522,842.354 429.5,841.5C 431.742,840.114 433.075,838.114 433.5,835.5 Z"/></g>
<g><path style="opacity:1" fill="#2a4f83" d="M 667.5,833.5 C 671.576,833.121 675.243,834.121 678.5,836.5C 674.34,836.466 670.173,836.8 666,837.5C 665.333,838.833 665.333,840.167 666,841.5C 668.939,843.385 672.105,844.885 675.5,846C 679.5,849.667 679.5,853.333 675.5,857C 670.158,860.281 665.491,859.448 661.5,854.5C 662,854.167 662.5,853.833 663,853.5C 665.569,854.786 668.236,855.786 671,856.5C 674.739,856.095 676.073,854.095 675,850.5C 671,847.833 667,845.167 663,842.5C 661.9,838.031 663.4,835.031 667.5,833.5 Z"/></g>
<g><path style="opacity:1" fill="#02285a" d="M 600.5,833.5 C 601.675,833.281 602.675,833.614 603.5,834.5C 601.948,835.798 600.948,835.465 600.5,833.5 Z"/></g>
<g><path style="opacity:1" fill="#305486" d="M 456.5,833.5 C 457.117,833.611 457.617,833.944 458,834.5C 458.91,841.945 458.41,849.279 456.5,856.5C 455.202,848.776 455.202,841.109 456.5,833.5 Z"/></g>
<g><path style="opacity:1" fill="#284f82" d="M 221.5,833.5 C 222.794,834.29 223.961,835.29 225,836.5C 227.25,840.668 229.75,844.668 232.5,848.5C 235.817,844.545 238.651,840.212 241,835.5C 242.079,833.606 243.413,833.273 245,834.5C 245.667,840.5 245.667,846.5 245,852.5C 244.781,853.938 244.281,855.271 243.5,856.5C 242.833,851.167 242.167,845.833 241.5,840.5C 238.486,845.203 235.486,849.87 232.5,854.5C 229.415,850 226.582,845.333 224,840.5C 223.667,845.833 223.333,851.167 223,856.5C 222.683,858.301 222.016,858.634 221,857.5C 220.2,849.421 220.367,841.421 221.5,833.5 Z"/></g>
<g><path style="opacity:1" fill="#204a80" d="M 489.5,832.5 C 493.701,832.442 494.201,833.442 491,835.5C 490.506,837.134 490.34,838.801 490.5,840.5C 495.579,840.782 495.746,841.782 491,843.5C 490.101,848.151 489.268,852.818 488.5,857.5C 487.833,852.833 487.167,848.167 486.5,843.5C 483.812,841.977 483.978,840.643 487,839.5C 487.153,836.849 487.987,834.516 489.5,832.5 Z"/></g>
<g><path style="opacity:1" fill="#0e2143" d="M 550.5,788.5 C 549.795,791.244 549.795,793.911 550.5,796.5C 551.622,795.37 552.956,794.703 554.5,794.5C 554.84,804.345 559.84,808.511 569.5,807C 573.263,802.318 575.763,802.818 577,808.5C 565.453,816.627 556.12,814.627 549,802.5C 548.333,798.5 548.333,794.5 549,790.5C 549.278,789.584 549.778,788.918 550.5,788.5 Z"/></g>
<g><path style="opacity:1" fill="#0e234a" d="M 390.5,789.5 C 392.833,789.5 395.167,789.5 397.5,789.5C 397.334,795.176 397.501,800.843 398,806.5C 401.646,809.341 404.646,808.674 407,804.5C 407.499,799.511 407.666,794.511 407.5,789.5C 409.5,789.5 411.5,789.5 413.5,789.5C 413.856,797.238 413.356,804.905 412,812.5C 409.956,813.772 408.122,813.439 406.5,811.5C 399.526,815.119 394.359,813.453 391,806.5C 390.501,800.843 390.334,795.176 390.5,789.5 Z"/></g>
<g><path style="opacity:1" fill="#122448" d="M 483.5,789.5 C 487.514,789.334 491.514,789.501 495.5,790C 502.905,794.236 504.405,800.07 500,807.5C 492.353,815.675 485.02,815.342 478,806.5C 476.076,799.441 477.91,793.775 483.5,789.5 Z"/></g>
<g><path style="opacity:1" fill="#0f2144" d="M 331.5,789.5 C 334.85,789.335 338.183,789.502 341.5,790C 345.449,791.687 345.449,793.187 341.5,794.5C 339.199,793.604 336.866,793.438 334.5,794C 333.978,794.561 333.645,795.228 333.5,796C 337.841,798.124 342.007,800.624 346,803.5C 345.127,811.381 340.627,814.548 332.5,813C 330.089,812.802 328.423,811.636 327.5,809.5C 327.453,808 328.119,807 329.5,806.5C 333.167,809.92 336.834,810.087 340.5,807C 336.668,804.25 332.668,801.75 328.5,799.5C 326.738,795.292 327.738,791.958 331.5,789.5 Z"/></g>
<g><path style="opacity:1" fill="#ebedef" d="M 673.5,798.5 C 673.944,802.946 672.277,806.279 668.5,808.5C 662.448,807.937 659.948,804.604 661,798.5C 663.053,794.708 666.219,793.542 670.5,795C 671.636,796.145 672.636,797.312 673.5,798.5 Z"/></g>
<g><path style="opacity:1" fill="#1d2a49" d="M 529.5,794.5 C 530.413,800.441 530.746,806.441 530.5,812.5C 528.167,812.5 525.833,812.5 523.5,812.5C 523.5,807.167 523.5,801.833 523.5,796.5C 525,797.588 526.333,798.921 527.5,800.5C 528.169,798.369 528.835,796.369 529.5,794.5 Z"/></g>
<g><path style="opacity:1" fill="#f2f2f4" d="M 486.5,794.5 C 495.008,793.523 497.842,797.19 495,805.5C 490.498,809.867 486.832,809.201 484,803.5C 482.93,799.858 483.764,796.858 486.5,794.5 Z"/></g>
<g><path style="opacity:1" fill="#f0f1f3" d="M 285.5,795.5 C 289.221,803.233 286.888,807.399 278.5,808C 275.38,805.592 274.047,802.426 274.5,798.5C 274.944,796.887 275.944,795.72 277.5,795C 280.221,794.398 282.887,794.565 285.5,795.5 Z"/></g>
<g><path style="opacity:1" fill="#0e2753" d="M 288.5,791.5 C 287.512,792.795 286.512,794.128 285.5,795.5C 282.887,794.565 280.221,794.398 277.5,795C 275.944,795.72 274.944,796.887 274.5,798.5C 272.353,799.932 272.02,801.765 273.5,804C 273.026,805.729 272.026,806.895 270.5,807.5C 265.486,796.528 268.986,790.528 281,789.5C 283.866,789.3 286.366,789.967 288.5,791.5 Z"/></g>
<g><path style="opacity:1" fill="#0d2856" d="M 678.5,795.5 C 681.274,809.393 675.608,815.059 661.5,812.5C 661.664,815.187 661.497,817.854 661,820.5C 660.617,821.056 660.117,821.389 659.5,821.5C 658.432,820.566 657.099,820.232 655.5,820.5C 655.654,815.985 655.654,811.652 655.5,807.5C 655.977,806.069 656.643,804.736 657.5,803.5C 660.126,805.823 662.793,808.157 665.5,810.5C 666.739,810.058 667.739,809.391 668.5,808.5C 672.277,806.279 673.944,802.946 673.5,798.5C 672.392,796.305 672.559,794.305 674,792.5C 675.129,794.141 676.629,795.141 678.5,795.5 Z"/></g>
<g><path style="opacity:1" fill="#0d2044" d="M 736.5,790.5 C 738.288,789.378 740.288,789.211 742.5,790C 744.563,794.726 746.896,799.226 749.5,803.5C 751.623,799.299 753.457,794.965 755,790.5C 756.699,789.594 758.533,789.261 760.5,789.5C 757.432,800.54 753.099,811.04 747.5,821C 744.97,822.422 742.303,822.755 739.5,822C 738.167,820.667 738.167,819.333 739.5,818C 744.938,817.555 746.771,814.721 745,809.5C 742.24,803.023 739.407,796.69 736.5,790.5 Z"/></g>
<g><path style="opacity:1" fill="#112448" d="M 621.5,788.5 C 625.44,788.07 628.94,789.07 632,791.5C 638.202,786.881 643.536,787.547 648,793.5C 648.667,799.833 648.667,806.167 648,812.5C 646.301,813.406 644.467,813.739 642.5,813.5C 642.666,807.491 642.499,801.491 642,795.5C 639.043,793.923 636.376,794.256 634,796.5C 633.501,801.823 633.334,807.156 633.5,812.5C 631.167,812.5 628.833,812.5 626.5,812.5C 626.5,806.5 626.5,800.5 626.5,794.5C 623.881,794.232 621.381,794.565 619,795.5C 617.804,801.098 616.804,806.765 616,812.5C 614.644,813.38 613.144,813.714 611.5,813.5C 611.5,805.5 611.5,797.5 611.5,789.5C 613.734,789.38 615.901,789.713 618,790.5C 619.459,790.192 620.626,789.525 621.5,788.5 Z"/></g>
<g><path style="opacity:1" fill="#0c1e3e" d="M 288.5,791.5 C 295.147,797.881 295.147,804.381 288.5,811C 281.254,815.384 275.254,814.217 270.5,807.5C 272.026,806.895 273.026,805.729 273.5,804C 272.02,801.765 272.353,799.932 274.5,798.5C 274.047,802.426 275.38,805.592 278.5,808C 286.888,807.399 289.221,803.233 285.5,795.5C 286.512,794.128 287.512,792.795 288.5,791.5 Z"/></g>
<g><path style="opacity:1" fill="#14274c" d="M 721.5,788.5 C 727.856,787.66 731.69,790.327 733,796.5C 733.772,801.904 733.439,807.238 732,812.5C 730.644,813.38 729.144,813.714 727.5,813.5C 727.666,808.156 727.499,802.823 727,797.5C 725.334,794.621 722.834,793.788 719.5,795C 718.874,795.75 718.374,796.584 718,797.5C 717.667,802.167 717.333,806.833 717,811.5C 715.267,813.602 713.267,813.935 711,812.5C 710.5,804.841 710.334,797.174 710.5,789.5C 713.038,789.507 715.538,789.841 718,790.5C 719.699,790.613 720.866,789.947 721.5,788.5 Z"/></g>
<g><path style="opacity:1" fill="#0b2756" d="M 529.5,794.5 C 528.835,796.369 528.169,798.369 527.5,800.5C 526.333,798.921 525,797.588 523.5,796.5C 522.5,796.167 521.833,795.5 521.5,794.5C 522.547,793.922 522.38,793.256 521,792.5C 520.667,792.833 520.333,793.167 520,793.5C 517.467,793.05 515.3,792.05 513.5,790.5C 516.698,789.066 520.032,788.566 523.5,789C 526.625,789.625 528.625,791.459 529.5,794.5 Z"/></g>
<g><path style="opacity:1" fill="#012455" d="M 471.5,796.5 C 471.5,798.167 471.5,799.833 471.5,801.5C 470.778,801.082 470.278,800.416 470,799.5C 469.825,803.211 469.325,806.878 468.5,810.5C 468.167,810 467.833,809.5 467.5,809C 466.562,802.881 466.228,796.714 466.5,790.5C 467.822,790.33 468.989,790.663 470,791.5C 470.198,793.382 470.698,795.048 471.5,796.5 Z"/></g>
<g><path style="opacity:1" fill="#0d1f3f" d="M 688.5,789.5 C 692.514,789.334 696.514,789.501 700.5,790C 701.333,790.833 702.167,791.667 703,792.5C 704.544,799.084 704.877,805.751 704,812.5C 699.569,811.848 695.235,812.515 691,814.5C 685.873,812.573 683.539,808.906 684,803.5C 688.131,799.956 692.964,798.289 698.5,798.5C 698.703,796.61 698.037,795.11 696.5,794C 692.985,793.481 689.652,793.814 686.5,795C 685.643,794.311 684.977,793.478 684.5,792.5C 685.901,791.479 687.235,790.479 688.5,789.5 Z"/></g>
<g><path style="opacity:1" fill="#eeeff1" d="M 690.5,803.5 C 692.857,803.337 695.19,803.503 697.5,804C 697.957,804.414 698.291,804.914 698.5,805.5C 696.231,809.417 693.397,810.084 690,807.5C 689.421,806.072 689.588,804.738 690.5,803.5 Z"/></g>
<g><path style="opacity:1" fill="#091c3d" d="M 678.5,795.5 C 676.629,795.141 675.129,794.141 674,792.5C 672.559,794.305 672.392,796.305 673.5,798.5C 672.636,797.312 671.636,796.145 670.5,795C 666.219,793.542 663.053,794.708 661,798.5C 659.948,804.604 662.448,807.937 668.5,808.5C 667.739,809.391 666.739,810.058 665.5,810.5C 662.793,808.157 660.126,805.823 657.5,803.5C 656.643,804.736 655.977,806.069 655.5,807.5C 655.654,811.652 655.654,815.985 655.5,820.5C 657.099,820.232 658.432,820.566 659.5,821.5C 657.883,822.038 656.216,822.371 654.5,822.5C 654.5,811.5 654.5,800.5 654.5,789.5C 660.457,790.02 666.457,790.187 672.5,790C 675.607,790.706 677.607,792.539 678.5,795.5 Z"/></g>
<g><path style="opacity:1" fill="#071a39" d="M 513.5,790.5 C 515.3,792.05 517.467,793.05 520,793.5C 520.333,793.167 520.667,792.833 521,792.5C 522.38,793.256 522.547,793.922 521.5,794.5C 519.208,794.244 517.041,794.577 515,795.5C 513.711,801.082 512.711,806.748 512,812.5C 510.644,813.38 509.144,813.714 507.5,813.5C 507.5,805.5 507.5,797.5 507.5,789.5C 509.621,789.325 511.621,789.659 513.5,790.5 Z"/></g>
<g><path style="opacity:1" fill="#061939" d="M 471.5,796.5 C 470.698,795.048 470.198,793.382 470,791.5C 468.989,790.663 467.822,790.33 466.5,790.5C 466.228,796.714 466.562,802.881 467.5,809C 467.833,809.5 468.167,810 468.5,810.5C 469.325,806.878 469.825,803.211 470,799.5C 470.278,800.416 470.778,801.082 471.5,801.5C 471.5,805.167 471.5,808.833 471.5,812.5C 469.738,812.357 468.071,812.691 466.5,813.5C 465.502,805.528 465.169,797.528 465.5,789.5C 467.5,789.5 469.5,789.5 471.5,789.5C 471.5,791.833 471.5,794.167 471.5,796.5 Z"/></g>
<g><path style="opacity:1" fill="#0d2145" d="M 425.5,789.5 C 429.182,789.335 432.848,789.501 436.5,790C 439.346,790.879 440.013,792.546 438.5,795C 434.861,794.722 431.194,794.722 427.5,795C 423.354,799.625 423.687,803.959 428.5,808C 431.565,808.653 434.399,808.153 437,806.5C 438.627,806.625 440.127,807.125 441.5,808C 434.782,815.031 427.949,815.197 421,808.5C 416.751,800.697 418.251,794.364 425.5,789.5 Z"/></g>
<g><path style="opacity:1" fill="#122141" d="M 383.5,788.5 C 386.244,789.072 387.077,790.738 386,793.5C 383.43,794.009 381.097,795.009 379,796.5C 377.776,801.386 377.109,806.386 377,811.5C 375.556,813.155 373.722,813.822 371.5,813.5C 371.5,805.5 371.5,797.5 371.5,789.5C 374.157,789.162 376.49,789.829 378.5,791.5C 380.145,790.304 381.811,789.304 383.5,788.5 Z"/></g>
<g><path style="opacity:1" fill="#012455" d="M 374.5,790.5 C 376.011,791.958 377.011,793.791 377.5,796C 376.031,799.656 375.031,803.489 374.5,807.5C 373.914,807.709 373.414,808.043 373,808.5C 372.333,803.167 372.333,797.833 373,792.5C 373.717,791.956 374.217,791.289 374.5,790.5 Z"/></g>
<g><path style="opacity:1" fill="#0c1f41" d="M 353.5,782.5 C 355.167,782.5 356.833,782.5 358.5,782.5C 358.201,784.604 358.534,786.604 359.5,788.5C 367.43,790.626 367.43,792.626 359.5,794.5C 359.334,798.514 359.501,802.514 360,806.5C 361.337,808.004 363.004,809.004 365,809.5C 365.483,810.448 365.649,811.448 365.5,812.5C 361.782,814.151 358.282,813.818 355,811.5C 353.358,806.292 352.358,800.959 352,795.5C 350.926,794.382 349.76,793.382 348.5,792.5C 351.24,789.687 352.906,786.354 353.5,782.5 Z"/></g>
<g><path style="opacity:1" fill="#142549" d="M 309.5,788.5 C 314.739,787.959 318.572,789.959 321,794.5C 321.667,800.5 321.667,806.5 321,812.5C 319.301,813.406 317.467,813.739 315.5,813.5C 315.666,808.156 315.499,802.823 315,797.5C 313.334,794.621 310.834,793.788 307.5,795C 306.874,795.75 306.374,796.584 306,797.5C 305.891,802.614 305.224,807.614 304,812.5C 302.333,813.833 300.667,813.833 299,812.5C 298.5,804.841 298.334,797.174 298.5,789.5C 301.219,789.397 303.885,789.731 306.5,790.5C 308.038,790.547 309.038,789.88 309.5,788.5 Z"/></g>
<g><path style="opacity:1" fill="#0d2247" d="M 590.5,788.5 C 601.649,788.148 606.816,793.481 606,804.5C 601.733,813.195 595.233,815.361 586.5,811C 578.834,801.807 580.167,794.307 590.5,788.5 Z"/></g>
<g><path style="opacity:1" fill="#eff0f2" d="M 591.5,794.5 C 599.742,794.243 602.242,797.91 599,805.5C 592.592,810.307 588.758,808.641 587.5,800.5C 587.67,797.674 589.003,795.674 591.5,794.5 Z"/></g>
<g><path style="opacity:1" fill="#0b254f" d="M 249.5,779.5 C 255.02,779.095 259.353,781.095 262.5,785.5C 262.5,787.5 261.5,788.5 259.5,788.5C 252.23,783.573 246.397,784.906 242,792.5C 240.39,800.895 243.723,806.229 252,808.5C 255.349,806.56 258.849,805.393 262.5,805C 264.947,806.229 265.113,807.729 263,809.5C 254.173,815.318 245.84,814.651 238,807.5C 231.291,793.581 235.124,784.248 249.5,779.5 Z"/></g>
<g><path style="opacity:1" fill="#0c2550" d="M 448.5,782.5 C 452.759,782.102 454.592,784.102 454,788.5C 462.684,790.831 462.518,792.831 453.5,794.5C 453.334,798.514 453.501,802.514 454,806.5C 456.406,807.565 458.573,808.898 460.5,810.5C 457.734,813.905 454.4,814.405 450.5,812C 448.125,806.807 446.959,801.307 447,795.5C 442.509,792.934 442.509,790.601 447,788.5C 447.315,786.414 447.815,784.414 448.5,782.5 Z"/></g>
<g><path style="opacity:1" fill="#092756" d="M 554.5,794.5 C 552.956,794.703 551.622,795.37 550.5,796.5C 549.795,793.911 549.795,791.244 550.5,788.5C 555.555,779.253 562.888,777.086 572.5,782C 573.833,783.333 575.167,784.667 576.5,786C 575.57,786.991 574.404,787.491 573,787.5C 564.101,783.1 557.934,785.434 554.5,794.5 Z"/></g>
<g><path style="opacity:1" fill="#173160" d="M 466.5,778.5 C 468.948,778.01 470.615,778.843 471.5,781C 470.831,782.847 469.497,784.014 467.5,784.5C 465.261,782.867 464.928,780.867 466.5,778.5 Z"/></g>
<g><path style="opacity:1" fill="#37618a" d="M 324.5,750.5 C 333.644,751.085 342.644,751.752 351.5,752.5C 332.992,752.83 314.659,752.497 296.5,751.5C 306.015,751.827 315.348,751.494 324.5,750.5 Z"/></g>
<g><path style="opacity:1" fill="#94a4b9" d="M 768.5,748.5 C 771.898,748.18 775.232,748.513 778.5,749.5C 778.376,750.107 778.043,750.44 777.5,750.5C 774.5,749.833 771.5,749.167 768.5,748.5 Z"/></g>
<g><path style="opacity:1" fill="#204b81" d="M 684.5,748.5 C 712.5,748.5 740.5,748.5 768.5,748.5C 771.5,749.167 774.5,749.833 777.5,750.5C 744.197,752.253 710.864,752.92 677.5,752.5C 682.934,751.044 688.6,750.21 694.5,750C 690.975,749.821 687.641,749.321 684.5,748.5 Z"/></g>
<g><path style="opacity:1" fill="#254d82" d="M 326.5,748.5 C 319.679,749.329 312.679,749.829 305.5,750C 311.825,750.5 318.158,750.666 324.5,750.5C 315.348,751.494 306.015,751.827 296.5,751.5C 273.164,751.667 249.831,751.5 226.5,751C 226.167,750.667 225.833,750.333 225.5,750C 227.5,749.667 229.5,749.333 231.5,749C 263.165,748.5 294.832,748.333 326.5,748.5 Z"/></g>
<g><path style="opacity:1" fill="#078d9b" d="M 684.5,748.5 C 687.641,749.321 690.975,749.821 694.5,750C 688.6,750.21 682.934,751.044 677.5,752.5C 627.5,752.5 577.5,752.5 527.5,752.5C 527.5,750.5 527.5,748.5 527.5,746.5C 579.829,747.315 632.163,747.981 684.5,748.5 Z"/></g>
<g><path style="opacity:1" fill="#278f9e" d="M 351.5,752.5 C 342.644,751.752 333.644,751.085 324.5,750.5C 318.158,750.666 311.825,750.5 305.5,750C 312.679,749.829 319.679,749.329 326.5,748.5C 377.839,748.138 429.173,747.471 480.5,746.5C 481.056,749.895 479.723,752.062 476.5,753C 434.831,753.471 393.165,753.305 351.5,752.5 Z"/></g>
<g><path style="opacity:1" fill="#1c8f9d" d="M 497.5,734.5 C 514.934,733.088 521.767,740.755 518,757.5C 511.367,767.466 503.2,768.966 493.5,762C 484.68,751.415 486.013,742.248 497.5,734.5 Z"/></g>
<g><path style="opacity:1" fill="#f4f5f6" d="M 501.5,741.5 C 509.176,741.831 512.343,745.831 511,753.5C 509.053,757.557 505.886,759.057 501.5,758C 493.565,752.504 493.565,747.004 501.5,741.5 Z"/></g>
<g><path style="opacity:1" fill="#1d2b4b" d="M 443.5,639.5 C 442.793,641.134 441.627,642.468 440,643.5C 439.308,648.891 439.641,654.225 441,659.5C 441.5,660.667 442.333,661.5 443.5,662C 448.935,663.058 454.435,663.558 460,663.5C 471.826,662.863 483.659,662.529 495.5,662.5C 495.5,655.5 495.5,648.5 495.5,641.5C 482.496,641.667 469.496,641.5 456.5,641C 462.016,640.827 467.349,640.327 472.5,639.5C 480.833,639.5 489.167,639.5 497.5,639.5C 497.167,648.167 496.833,656.833 496.5,665.5C 477.497,665.667 458.497,665.5 439.5,665C 438.517,656.585 438.183,648.085 438.5,639.5C 440.167,639.5 441.833,639.5 443.5,639.5 Z"/></g>
<g><path style="opacity:1" fill="#002456" d="M 443.5,639.5 C 453.167,639.5 462.833,639.5 472.5,639.5C 467.349,640.327 462.016,640.827 456.5,641C 469.496,641.5 482.496,641.667 495.5,641.5C 495.5,648.5 495.5,655.5 495.5,662.5C 483.659,662.529 471.826,662.863 460,663.5C 454.435,663.558 448.935,663.058 443.5,662C 442.333,661.5 441.5,660.667 441,659.5C 439.641,654.225 439.308,648.891 440,643.5C 441.627,642.468 442.793,641.134 443.5,639.5 Z"/></g>
<g><path style="opacity:1" fill="#078e9c" d="M 695.5,584.5 C 705.167,584.5 714.833,584.5 724.5,584.5C 724.5,629.833 724.5,675.167 724.5,720.5C 715.113,720.807 705.78,720.473 696.5,719.5C 695.5,674.505 695.167,629.505 695.5,584.5 Z"/></g>
<g><path style="opacity:1" fill="#0c8f9c" d="M 642.5,718.5 C 642.833,690.825 642.5,663.159 641.5,635.5C 640.893,635.624 640.56,635.957 640.5,636.5C 628.758,658.316 617.258,680.316 606,702.5C 600.255,703.757 594.422,704.257 588.5,704C 587.213,702.59 586.046,701.09 585,699.5C 573.906,678.309 562.573,657.309 551,636.5C 550.578,664.17 550.078,691.837 549.5,719.5C 540.284,720.736 531.117,720.736 522,719.5C 521.5,674.501 521.333,629.501 521.5,584.5C 532.52,584.168 543.52,584.501 554.5,585.5C 568.333,611.833 582.167,638.167 596,664.5C 610.255,638.325 624.255,611.992 638,585.5C 648.752,584.513 659.585,584.18 670.5,584.5C 670.416,629.502 670.082,674.502 669.5,719.5C 660.416,719.804 651.416,719.471 642.5,718.5 Z"/></g>
<g><path style="opacity:1" fill="#5590a5" d="M 640.5,636.5 C 640.56,635.957 640.893,635.624 641.5,635.5C 642.5,663.159 642.833,690.825 642.5,718.5C 641.833,691.167 641.167,663.833 640.5,636.5 Z"/></g>
<g><path style="opacity:1" fill="#012557" d="M 346.5,583.5 C 358.505,583.333 370.505,583.5 382.5,584C 397.697,586.675 410.197,593.842 420,605.5C 420.706,607.971 420.373,610.305 419,612.5C 414.191,617.324 408.858,621.324 403,624.5C 397.811,621.146 392.644,617.646 387.5,614C 363.378,603.155 343.545,608.321 328,629.5C 315.904,655.781 322.071,676.615 346.5,692C 366.852,699.769 384.852,696.103 400.5,681C 401.333,680.833 402.167,680.667 403,680.5C 405.588,681.568 408.088,682.901 410.5,684.5C 414.357,687.858 418.023,691.358 421.5,695C 421,696.5 420.5,698 420,699.5C 409.021,712.076 395.188,719.576 378.5,722C 353.654,725.158 331.654,718.825 312.5,703C 292.619,679.783 287.786,653.617 298,624.5C 307.673,602.982 323.84,589.316 346.5,583.5 Z"/></g>
<g><path style="opacity:1" fill="#0e8f9c" d="M 783.5,582.5 C 801.352,580.014 817.352,584.181 831.5,595C 835.062,598.058 838.062,601.558 840.5,605.5C 834.973,611.178 829.14,616.511 823,621.5C 817.787,617.292 812.287,613.459 806.5,610C 794.205,604.67 784.039,607.17 776,617.5C 774.781,622.898 776.281,627.398 780.5,631C 795.964,637.269 811.298,643.936 826.5,651C 839.237,661.206 844.07,674.373 841,690.5C 835.36,708.468 823.193,718.968 804.5,722C 780.996,725.5 761.162,718.666 745,701.5C 743.924,699.933 743.091,698.266 742.5,696.5C 744.235,693.257 746.568,690.423 749.5,688C 753.167,685.167 756.833,682.333 760.5,679.5C 765.394,684.564 770.727,689.064 776.5,693C 787.248,698.749 797.915,698.749 808.5,693C 815.507,685.353 814.84,678.353 806.5,672C 794.913,667.138 783.246,662.471 771.5,658C 751.37,648.909 743.537,633.409 748,611.5C 754.898,595.766 766.732,586.1 783.5,582.5 Z"/></g>
<g><path style="opacity:1" fill="#022657" d="M 206.5,582.5 C 230.343,580.27 251.676,586.436 270.5,601C 274.422,604.607 275.255,608.774 273,613.5C 266.804,616.852 261.304,621.186 256.5,626.5C 242.841,610.892 225.841,605.392 205.5,610C 186.922,617.807 176.922,631.807 175.5,652C 176.779,676.586 189.446,691.252 213.5,696C 231.075,697.796 245.575,691.962 257,678.5C 262.405,684.576 268.405,689.909 275,694.5C 273.348,699.252 270.515,703.419 266.5,707C 253.043,717.319 237.709,722.485 220.5,722.5C 185.107,722.888 161.274,706.555 149,673.5C 140.224,633.558 154.057,604.725 190.5,587C 195.929,585.386 201.263,583.886 206.5,582.5 Z"/></g>
<g><path style="opacity:1" fill="#0e1f3f" d="M 303.5,531.5 C 302.013,532.804 300.346,533.97 298.5,535C 287.692,535.701 277.025,537.368 266.5,540C 258.77,543.013 250.77,545.013 242.5,546C 239.215,546.759 236.215,548.092 233.5,550C 225.836,550.221 218.503,551.888 211.5,555C 212.833,555.667 212.833,556.333 211.5,557C 219.139,557.106 226.472,555.606 233.5,552.5C 235.336,553.028 237.003,553.694 238.5,554.5C 219.287,558.308 199.954,561.808 180.5,565C 220.16,549.001 261.16,537.835 303.5,531.5 Z"/></g>
<g><path style="opacity:1" fill="#557496" d="M 207.5,534.5 C 207.865,539.094 208.865,543.427 210.5,547.5C 209.791,548.404 208.791,548.737 207.5,548.5C 207.5,543.833 207.5,539.167 207.5,534.5 Z"/></g>
<g><path style="opacity:1" fill="#0b1d3d" d="M 678.5,524.5 C 688.264,525.787 697.931,527.454 707.5,529.5C 698.594,531.58 690.094,530.247 682,525.5C 680.687,526.287 679.52,525.954 678.5,524.5 Z"/></g>
<g><path style="opacity:1" fill="#022455" d="M 678.5,524.5 C 679.52,525.954 680.687,526.287 682,525.5C 690.094,530.247 698.594,531.58 707.5,529.5C 735.589,536.14 763.256,544.307 790.5,554C 796.318,556.41 801.985,559.077 807.5,562C 779.667,556.268 751.667,551.101 723.5,546.5C 721.859,544.742 719.859,543.242 717.5,542C 716.333,541.833 715.167,541.667 714,541.5C 711.495,542.191 709.162,542.524 707,542.5C 627.839,532.972 548.339,529.305 468.5,531.5C 464.107,531.509 460.107,532.176 456.5,533.5C 454.167,533.5 451.833,533.5 449.5,533.5C 412.75,533.618 375.917,535.618 339,539.5C 334.52,538.568 330.02,538.401 325.5,539C 316.753,543.058 307.587,544.225 298,542.5C 287.062,546.185 275.896,547.852 264.5,547.5C 260.479,550.226 256.145,550.892 251.5,549.5C 248.912,551.057 246.079,552.057 243,552.5C 241.97,552.836 241.47,553.503 241.5,554.5C 240.5,554.5 239.5,554.5 238.5,554.5C 237.003,553.694 235.336,553.028 233.5,552.5C 226.472,555.606 219.139,557.106 211.5,557C 212.833,556.333 212.833,555.667 211.5,555C 218.503,551.888 225.836,550.221 233.5,550C 236.215,548.092 239.215,546.759 242.5,546C 250.77,545.013 258.77,543.013 266.5,540C 277.025,537.368 287.692,535.701 298.5,535C 300.346,533.97 302.013,532.804 303.5,531.5C 409.609,510.707 516.609,505.874 624.5,517C 642.568,519.175 660.568,521.675 678.5,524.5 Z"/></g>
<g><path style="opacity:1" fill="#071a3a" d="M 449.5,533.5 C 379.73,536.144 310.396,543.144 241.5,554.5C 241.47,553.503 241.97,552.836 243,552.5C 246.079,552.057 248.912,551.057 251.5,549.5C 256.145,550.892 260.479,550.226 264.5,547.5C 275.896,547.852 287.062,546.185 298,542.5C 307.587,544.225 316.753,543.058 325.5,539C 330.02,538.401 334.52,538.568 339,539.5C 375.917,535.618 412.75,533.618 449.5,533.5 Z"/></g>
<g><path style="opacity:1" fill="#172645" d="M 723.5,546.5 C 634.88,534.918 545.88,530.585 456.5,533.5C 460.107,532.176 464.107,531.509 468.5,531.5C 548.339,529.305 627.839,532.972 707,542.5C 709.162,542.524 711.495,542.191 714,541.5C 715.167,541.667 716.333,541.833 717.5,542C 719.859,543.242 721.859,544.742 723.5,546.5 Z"/></g>
<g><path style="opacity:1" fill="#0d1e3e" d="M 430.5,419.5 C 434.069,421.119 437.736,422.452 441.5,423.5C 441.798,450.525 441.465,477.525 440.5,504.5C 422.739,505.363 405.073,507.029 387.5,509.5C 387.389,508.883 387.056,508.383 386.5,508C 404.035,504.613 421.702,502.78 439.5,502.5C 438.784,476.842 438.617,451.175 439,425.5C 436.579,424.039 434.079,422.706 431.5,421.5C 430.702,421.043 430.369,420.376 430.5,419.5 Z"/></g>
<g><path style="opacity:1" fill="#002456" d="M 312.5,501.5 C 312.5,501.833 312.5,502.167 312.5,502.5C 313.432,509.263 310.765,513.763 304.5,516C 303.072,518.185 301.405,520.185 299.5,522C 294.307,523.968 288.974,524.634 283.5,524C 281.845,522.556 281.178,520.722 281.5,518.5C 278.03,519.125 275.196,518.125 273,515.5C 273.839,513.451 275.005,511.451 276.5,509.5C 277.167,509.5 277.5,509.167 277.5,508.5C 280.894,507.29 284.228,505.956 287.5,504.5C 289.931,505.806 289.597,506.806 286.5,507.5C 290.195,508.713 293.195,507.713 295.5,504.5C 298.642,503.833 301.642,503.166 304.5,502.5C 304.833,502.5 305.167,502.5 305.5,502.5C 307.663,500.568 309.997,500.235 312.5,501.5 Z"/></g>
<g><path style="opacity:1" fill="#b8c0cb" d="M 284.5,444.5 C 284.5,463.833 284.5,483.167 284.5,502.5C 282.833,502.5 281.167,502.5 279.5,502.5C 280.568,501.566 281.901,501.232 283.5,501.5C 283.17,482.326 283.503,463.326 284.5,444.5 Z"/></g>
<g><path style="opacity:1" fill="#081b3b" d="M 256.5,484.5 C 261.787,485.342 267.12,485.676 272.5,485.5C 272.5,493.5 272.5,501.5 272.5,509.5C 273.833,509.5 275.167,509.5 276.5,509.5C 275.005,511.451 273.839,513.451 273,515.5C 275.196,518.125 278.03,519.125 281.5,518.5C 281.178,520.722 281.845,522.556 283.5,524C 288.974,524.634 294.307,523.968 299.5,522C 301.405,520.185 303.072,518.185 304.5,516C 310.765,513.763 313.432,509.263 312.5,502.5C 314.5,502.5 316.5,502.5 318.5,502.5C 318.338,504.527 318.505,506.527 319,508.5C 321,509.167 323,509.833 325,510.5C 325.978,513.669 325.478,516.503 323.5,519C 301.258,524.311 278.925,529.144 256.5,533.5C 256.5,517.167 256.5,500.833 256.5,484.5 Z"/></g>
<g><path style="opacity:1" fill="#012455" d="M 265.5,488.5 C 266.5,488.5 267.5,488.5 268.5,488.5C 267.486,500.181 266.653,511.847 266,523.5C 269.397,527.041 268.563,529.374 263.5,530.5C 260.016,529.13 258.349,526.463 258.5,522.5C 259.286,513.831 260.119,505.165 261,496.5C 262.245,493.676 263.745,491.009 265.5,488.5 Z"/></g>
<g><path style="opacity:1" fill="#bcc4ce" d="M 223.5,454.5 C 223.5,464.5 223.5,474.5 223.5,484.5C 220.5,484.5 217.5,484.5 214.5,484.5C 216.948,483.527 219.615,483.194 222.5,483.5C 222.173,473.652 222.506,463.986 223.5,454.5 Z"/></g>
<g><path style="opacity:1" fill="#12437c" d="M 226.5,448.5 C 227.495,460.322 227.828,472.322 227.5,484.5C 230.939,484.747 234.272,484.414 237.5,483.5C 238.705,484.686 240.039,484.686 241.5,483.5C 244.625,484.479 247.958,484.813 251.5,484.5C 253.167,484.5 254.833,484.5 256.5,484.5C 256.5,500.833 256.5,517.167 256.5,533.5C 251.679,534.867 246.679,536.034 241.5,537C 231.265,540.971 220.932,544.471 210.5,547.5C 208.865,543.427 207.865,539.094 207.5,534.5C 207.5,517.833 207.5,501.167 207.5,484.5C 209.833,484.5 212.167,484.5 214.5,484.5C 217.5,484.5 220.5,484.5 223.5,484.5C 224.496,484.586 225.329,484.252 226,483.5C 226.5,471.838 226.667,460.171 226.5,448.5 Z"/></g>
<g><path style="opacity:1" fill="#061939" d="M 332.5,475.5 C 333.931,475.881 334.764,476.881 335,478.5C 335.989,490.461 335.155,502.128 332.5,513.5C 332.5,500.833 332.5,488.167 332.5,475.5 Z"/></g>
<g><path style="opacity:1" fill="#071a3a" d="M 351.5,467.5 C 354.518,467.704 357.518,468.037 360.5,468.5C 360.642,483.515 360.309,498.515 359.5,513.5C 351.101,514.462 342.768,515.795 334.5,517.5C 333.893,517.376 333.56,517.043 333.5,516.5C 338.238,514.624 342.571,511.958 346.5,508.5C 348.955,509.315 351.289,510.315 353.5,511.5C 354.442,511.392 355.275,511.059 356,510.5C 356.715,506.508 356.215,502.675 354.5,499C 354.891,495.823 356.057,492.99 358,490.5C 358.667,485.167 358.667,479.833 358,474.5C 356.27,471.609 354.104,469.276 351.5,467.5 Z"/></g>
<g><path style="opacity:1" fill="#142445" d="M 371.5,392.5 C 370.167,411.155 369.5,430.155 369.5,449.5C 369.667,468.5 369.833,487.5 370,506.5C 373.459,507.592 376.626,508.925 379.5,510.5C 375.481,510.646 371.481,510.979 367.5,511.5C 367.333,471.499 367.5,431.499 368,391.5C 369.313,390.713 370.48,391.046 371.5,392.5 Z"/></g>
<g><path style="opacity:1" fill="#002556" d="M 347.5,466.5 C 349.099,466.232 350.432,466.566 351.5,467.5C 354.104,469.276 356.27,471.609 358,474.5C 358.667,479.833 358.667,485.167 358,490.5C 356.057,492.99 354.891,495.823 354.5,499C 356.215,502.675 356.715,506.508 356,510.5C 355.275,511.059 354.442,511.392 353.5,511.5C 351.289,510.315 348.955,509.315 346.5,508.5C 342.571,511.958 338.238,514.624 333.5,516.5C 332.596,515.791 332.263,514.791 332.5,513.5C 335.155,502.128 335.989,490.461 335,478.5C 334.764,476.881 333.931,475.881 332.5,475.5C 332.158,474.662 331.492,474.328 330.5,474.5C 328.874,472.297 326.708,470.63 324,469.5C 323.182,466.773 323.348,464.106 324.5,461.5C 331.88,464.175 339.547,465.842 347.5,466.5 Z"/></g>
<g><path style="opacity:1" fill="#071a3a" d="M 347.5,466.5 C 339.547,465.842 331.88,464.175 324.5,461.5C 323.348,464.106 323.182,466.773 324,469.5C 326.708,470.63 328.874,472.297 330.5,474.5C 327.167,474.5 323.833,474.5 320.5,474.5C 320.5,469.833 320.5,465.167 320.5,460.5C 329.848,461.423 338.848,463.423 347.5,466.5 Z"/></g>
<g><path style="opacity:1" fill="#081b3a" d="M 226.5,448.5 C 226.667,460.171 226.5,471.838 226,483.5C 225.329,484.252 224.496,484.586 223.5,484.5C 223.5,474.5 223.5,464.5 223.5,454.5C 223.338,452.473 223.505,450.473 224,448.5C 224.977,447.226 225.811,447.226 226.5,448.5 Z"/></g>
<g><path style="opacity:1" fill="#061838" d="M 256.5,484.5 C 254.833,484.5 253.167,484.5 251.5,484.5C 251.5,472.167 251.5,459.833 251.5,447.5C 253.167,447.5 254.833,447.5 256.5,447.5C 256.5,459.833 256.5,472.167 256.5,484.5 Z"/></g>
<g><path style="opacity:1" fill="#0d1e3d" d="M 241.5,483.5 C 240.039,484.686 238.705,484.686 237.5,483.5C 237.333,464.83 237.5,446.164 238,427.5C 239,426.167 240,426.167 241,427.5C 241.5,446.164 241.667,464.83 241.5,483.5 Z"/></g>
<g><path style="opacity:1" fill="#0b1d3c" d="M 657.5,399.5 C 652.684,400.65 647.684,400.816 642.5,400C 629.378,397.399 616.211,395.233 603,393.5C 602.333,394.167 601.667,394.833 601,395.5C 599.406,429.995 599.073,464.662 600,499.5C 601.648,500.717 603.481,501.55 605.5,502C 627.359,506.132 649.359,508.799 671.5,510C 674.208,508.931 676.875,507.764 679.5,506.5C 680.667,477.839 680.833,449.172 680,420.5C 679.086,418.336 677.919,416.336 676.5,414.5C 679.708,411.951 681.041,408.617 680.5,404.5C 675.304,403.861 670.304,402.861 665.5,401.5C 671.152,402.032 676.819,402.365 682.5,402.5C 682.761,440.177 682.428,477.844 681.5,515.5C 654.281,510.848 626.947,507.181 599.5,504.5C 598.5,466.839 598.167,429.173 598.5,391.5C 618.114,394.54 637.781,397.207 657.5,399.5 Z"/></g>
<g><path style="opacity:1" fill="#002456" d="M 657.5,399.5 C 660.167,400.167 662.833,400.833 665.5,401.5C 670.304,402.861 675.304,403.861 680.5,404.5C 681.041,408.617 679.708,411.951 676.5,414.5C 677.919,416.336 679.086,418.336 680,420.5C 680.833,449.172 680.667,477.839 679.5,506.5C 676.875,507.764 674.208,508.931 671.5,510C 649.359,508.799 627.359,506.132 605.5,502C 603.481,501.55 601.648,500.717 600,499.5C 599.073,464.662 599.406,429.995 601,395.5C 601.667,394.833 602.333,394.167 603,393.5C 616.211,395.233 629.378,397.399 642.5,400C 647.684,400.816 652.684,400.65 657.5,399.5 Z"/></g>
<g><path style="opacity:1" fill="#f6f7f7" d="M 663.5,468.5 C 664.5,468.5 665.5,468.5 666.5,468.5C 666.5,473.833 666.5,479.167 666.5,484.5C 661.737,484.774 657.07,484.441 652.5,483.5C 651.191,481.429 650.525,478.929 650.5,476C 650.667,473.5 650.833,471 651,468.5C 655.087,467.751 659.253,467.751 663.5,468.5 Z"/></g>
<g><path style="opacity:1" fill="#0c1e3e" d="M 663.5,468.5 C 659.253,467.751 655.087,467.751 651,468.5C 650.833,471 650.667,473.5 650.5,476C 650.525,478.929 651.191,481.429 652.5,483.5C 651.458,484.791 650.292,484.791 649,483.5C 647.561,478.238 647.228,472.904 648,467.5C 649.89,464.48 652.39,463.814 655.5,465.5C 658.894,462.895 661.894,463.395 664.5,467C 663.944,467.383 663.611,467.883 663.5,468.5 Z"/></g>
<g><path style="opacity:1" fill="#f5f6f7" d="M 616.5,463.5 C 617.167,463.5 617.833,463.5 618.5,463.5C 623.862,463.472 629.195,463.806 634.5,464.5C 634.821,470.026 634.488,475.36 633.5,480.5C 631.167,480.5 628.833,480.5 626.5,480.5C 623.164,480.533 619.997,479.866 617,478.5C 616.501,473.511 616.334,468.511 616.5,463.5 Z"/></g>
<g><path style="opacity:1" fill="#061939" d="M 616.5,463.5 C 616.334,468.511 616.501,473.511 617,478.5C 619.997,479.866 623.164,480.533 626.5,480.5C 621.982,481.406 617.482,481.739 613,481.5C 609.186,474.517 609.853,468.184 615,462.5C 615.383,463.056 615.883,463.389 616.5,463.5 Z"/></g>
<g><path style="opacity:1" fill="#071a3b" d="M 617.5,454.5 C 623.339,455.279 629.006,455.279 634.5,454.5C 636.41,462.938 636.91,471.605 636,480.5C 635.023,481.774 634.189,481.774 633.5,480.5C 634.488,475.36 634.821,470.026 634.5,464.5C 629.195,463.806 623.862,463.472 618.5,463.5C 618.586,462.504 618.252,461.671 617.5,461C 620.638,460.92 623.804,461.087 627,461.5C 629.375,461.596 631.541,461.096 633.5,460C 632.833,459 632.167,458 631.5,457C 626.566,456.884 621.9,456.051 617.5,454.5 Z"/></g>
<g><path style="opacity:1" fill="#f7f7f7" d="M 666.5,443.5 C 667.113,449.271 666.446,454.604 664.5,459.5C 659.848,459.002 655.181,458.669 650.5,458.5C 650.5,453.167 650.5,447.833 650.5,442.5C 655.854,442.569 661.187,442.902 666.5,443.5 Z"/></g>
<g><path style="opacity:1" fill="#f2f3f4" d="M 620.5,437.5 C 621.833,437.5 623.167,437.5 624.5,437.5C 627.544,439.011 630.878,439.678 634.5,439.5C 634.5,443.833 634.5,448.167 634.5,452.5C 634.5,453.167 634.5,453.833 634.5,454.5C 629.006,455.279 623.339,455.279 617.5,454.5C 617.5,453.833 617.167,453.5 616.5,453.5C 616.334,448.489 616.501,443.489 617,438.5C 618.011,437.663 619.178,437.33 620.5,437.5 Z"/></g>
<g><path style="opacity:1" fill="#061a3a" d="M 620.5,437.5 C 619.178,437.33 618.011,437.663 617,438.5C 616.501,443.489 616.334,448.489 616.5,453.5C 615.136,448.587 613.469,443.587 611.5,438.5C 612.046,436.865 612.38,435.199 612.5,433.5C 615.754,433.794 618.421,435.127 620.5,437.5 Z"/></g>
<g><path style="opacity:1" fill="#0a1d3d" d="M 634.5,417.5 C 635.968,422.114 636.968,426.947 637.5,432C 636.305,438.935 635.305,445.768 634.5,452.5C 634.5,448.167 634.5,443.833 634.5,439.5C 630.878,439.678 627.544,439.011 624.5,437.5C 626.631,436.686 628.964,436.186 631.5,436C 632.167,435.333 632.833,434.667 633.5,434C 631.789,432.224 629.789,431.058 627.5,430.5C 630.044,430.896 632.211,430.229 634,428.5C 634.499,424.848 634.665,421.182 634.5,417.5 Z"/></g>
<g><path style="opacity:1" fill="#f5f5f6" d="M 666.5,421.5 C 666.5,424.833 666.5,428.167 666.5,431.5C 662.146,433.348 657.48,434.015 652.5,433.5C 651.191,431.429 650.525,428.929 650.5,426C 650.548,423.081 650.881,420.248 651.5,417.5C 655.129,416.513 658.796,416.679 662.5,418C 664.544,418.498 665.878,419.665 666.5,421.5 Z"/></g>
<g><path style="opacity:1" fill="#091b3b" d="M 651.5,417.5 C 650.881,420.248 650.548,423.081 650.5,426C 650.525,428.929 651.191,431.429 652.5,433.5C 656.97,434.486 661.637,434.819 666.5,434.5C 666.5,433.5 666.5,432.5 666.5,431.5C 666.5,428.167 666.5,424.833 666.5,421.5C 667.124,423.834 667.957,426.167 669,428.5C 669.777,431.429 669.61,434.263 668.5,437C 662.314,435.819 655.981,435.319 649.5,435.5C 649.33,436.822 649.663,437.989 650.5,439C 655.35,440.732 660.35,441.732 665.5,442C 666.056,442.383 666.389,442.883 666.5,443.5C 661.187,442.902 655.854,442.569 650.5,442.5C 650.5,447.833 650.5,453.167 650.5,458.5C 655.181,458.669 659.848,459.002 664.5,459.5C 664.119,460.931 663.119,461.764 661.5,462C 655.514,463.457 651.014,461.623 648,456.5C 647.886,451.237 646.719,446.237 644.5,441.5C 645.333,439.833 646.167,438.167 647,436.5C 647.191,430.917 647.691,425.417 648.5,420C 648.167,419.667 647.833,419.333 647.5,419C 648.563,417.812 649.897,417.312 651.5,417.5 Z"/></g>
<g><path style="opacity:1" fill="#969eb1" d="M 666.5,431.5 C 666.5,432.5 666.5,433.5 666.5,434.5C 661.637,434.819 656.97,434.486 652.5,433.5C 657.48,434.015 662.146,433.348 666.5,431.5 Z"/></g>
<g><path style="opacity:1" fill="#f0f1f2" d="M 634.5,415.5 C 634.5,416.167 634.5,416.833 634.5,417.5C 634.665,421.182 634.499,424.848 634,428.5C 632.211,430.229 630.044,430.896 627.5,430.5C 626.167,430.5 624.833,430.5 623.5,430.5C 621.444,429.784 619.277,429.117 617,428.5C 616.501,423.177 616.334,417.844 616.5,412.5C 621.874,412.523 627.207,413.023 632.5,414C 633.416,414.278 634.082,414.778 634.5,415.5 Z"/></g>
<g><path style="opacity:1" fill="#081b3b" d="M 634.5,415.5 C 634.082,414.778 633.416,414.278 632.5,414C 627.207,413.023 621.874,412.523 616.5,412.5C 616.334,417.844 616.501,423.177 617,428.5C 619.277,429.117 621.444,429.784 623.5,430.5C 620.833,430.5 618.167,430.5 615.5,430.5C 615.368,424.917 614.368,419.584 612.5,414.5C 614.236,408.974 617.902,407.141 623.5,409C 626.845,411.091 630.512,412.424 634.5,413C 635.774,413.977 635.774,414.811 634.5,415.5 Z"/></g>
<g><path style="opacity:1" fill="#002456" d="M 371.5,392.5 C 391.413,400.917 411.079,409.917 430.5,419.5C 430.369,420.376 430.702,421.043 431.5,421.5C 434.079,422.706 436.579,424.039 439,425.5C 438.617,451.175 438.784,476.842 439.5,502.5C 421.702,502.78 404.035,504.613 386.5,508C 387.056,508.383 387.389,508.883 387.5,509.5C 384.721,509.279 382.054,509.612 379.5,510.5C 376.626,508.925 373.459,507.592 370,506.5C 369.833,487.5 369.667,468.5 369.5,449.5C 369.5,430.155 370.167,411.155 371.5,392.5 Z"/></g>
<g><path style="opacity:1" fill="#c2c9d2" d="M 312.5,346.5 C 312.861,363.896 313.861,381.229 315.5,398.5C 314.5,398.5 313.5,398.5 312.5,398.5C 312.5,381.167 312.5,363.833 312.5,346.5 Z"/></g>
<g><path style="opacity:1" fill="#172646" d="M 611.5,339.5 C 613.781,340.608 615.948,341.942 618,343.5C 618.667,356.5 618.667,369.5 618,382.5C 610.615,383.433 603.281,382.766 596,380.5C 592.021,382.982 588.188,385.649 584.5,388.5C 584.369,387.761 584.536,387.094 585,386.5C 587.663,384.666 590.163,382.666 592.5,380.5C 593.815,379.524 595.148,378.524 596.5,377.5C 602.394,380.613 608.727,381.946 615.5,381.5C 615.649,380.448 615.483,379.448 615,378.5C 614.667,378.833 614.333,379.167 614,379.5C 610.172,376.21 609.672,372.543 612.5,368.5C 613.325,367.614 614.325,367.281 615.5,367.5C 617.365,361.305 616.698,355.472 613.5,350C 615.178,348.068 615.678,345.902 615,343.5C 613.229,342.696 611.729,341.529 610.5,340C 610.728,339.601 611.062,339.435 611.5,339.5 Z"/></g>
<g><path style="opacity:1" fill="#012556" d="M 593.5,328.5 C 599.87,331.679 605.87,335.346 611.5,339.5C 611.062,339.435 610.728,339.601 610.5,340C 611.729,341.529 613.229,342.696 615,343.5C 615.678,345.902 615.178,348.068 613.5,350C 616.698,355.472 617.365,361.305 615.5,367.5C 614.325,367.281 613.325,367.614 612.5,368.5C 609.672,372.543 610.172,376.21 614,379.5C 614.333,379.167 614.667,378.833 615,378.5C 615.483,379.448 615.649,380.448 615.5,381.5C 608.727,381.946 602.394,380.613 596.5,377.5C 595.148,378.524 593.815,379.524 592.5,380.5C 592.077,379.735 591.743,378.902 591.5,378C 596.051,363.145 597.884,347.979 597,332.5C 595.229,331.696 593.729,330.529 592.5,329C 592.728,328.601 593.062,328.435 593.5,328.5 Z"/></g>
<g><path style="opacity:1" fill="#072857" d="M 524.5,501.5 C 523.501,449.336 523.168,397.003 523.5,344.5C 524.326,340.018 524.826,335.351 525,330.5C 525.414,330.043 525.914,329.709 526.5,329.5C 527.667,386.164 527.833,442.83 527,499.5C 525.187,498.391 524.354,499.058 524.5,501.5 Z"/></g>
<g><path style="opacity:1" fill="#204a80" d="M 552.5,319.5 C 554.496,379.824 555.163,440.491 554.5,501.5C 550.098,501.772 545.765,501.439 541.5,500.5C 540.333,442.836 540.167,385.17 541,327.5C 545.013,324.97 548.846,322.304 552.5,319.5 Z"/></g>
<g><path style="opacity:1" fill="#17457d" d="M 593.5,328.5 C 593.062,328.435 592.728,328.601 592.5,329C 593.729,330.529 595.229,331.696 597,332.5C 597.884,347.979 596.051,363.145 591.5,378C 591.743,378.902 592.077,379.735 592.5,380.5C 590.163,382.666 587.663,384.666 585,386.5C 584.536,387.094 584.369,387.761 584.5,388.5C 584.5,426.5 584.5,464.5 584.5,502.5C 578.455,502.697 572.455,502.363 566.5,501.5C 566.187,440.324 566.521,379.157 567.5,318C 567.833,316.167 568.167,314.333 568.5,312.5C 576.673,318.086 585.006,323.42 593.5,328.5 Z"/></g>
<g><path style="opacity:1" fill="#959eaf" d="M 570.5,287.5 C 570.828,292.875 570.495,298.208 569.5,303.5C 568.893,303.376 568.56,303.043 568.5,302.5C 569.167,297.5 569.833,292.5 570.5,287.5 Z"/></g>
<g><path style="opacity:1" fill="#002456" d="M 277.5,298.5 C 277.5,298.167 277.5,297.833 277.5,297.5C 277.791,296.351 278.624,295.684 280,295.5C 282.564,296.635 284.73,296.635 286.5,295.5C 285.25,292.193 284.584,288.693 284.5,285C 284.313,280.345 284.979,275.845 286.5,271.5C 286.957,270.702 287.624,270.369 288.5,270.5C 289.167,270.5 289.833,270.5 290.5,270.5C 292.764,269.419 294.931,268.085 297,266.5C 298.867,268.808 299.867,271.475 300,274.5C 300.833,275.333 301.667,276.167 302.5,277C 305.409,276.716 308.242,276.883 311,277.5C 311.667,279.5 311.667,281.5 311,283.5C 307.898,289.595 304.398,295.429 300.5,301C 298.166,301.339 295.832,301.172 293.5,300.5C 287.672,303.476 282.339,302.81 277.5,298.5 Z"/></g>
<g><path style="opacity:1" fill="#002456" d="M 201.5,275.5 C 201.5,275.167 201.5,274.833 201.5,274.5C 201.5,266.167 201.5,257.833 201.5,249.5C 211.172,249.334 220.839,249.5 230.5,250C 232.433,250.251 234.266,250.751 236,251.5C 235.321,255.914 234.821,260.414 234.5,265C 236.271,272.049 237.271,279.215 237.5,286.5C 226.129,286.768 214.795,286.434 203.5,285.5C 203.841,281.84 203.175,278.507 201.5,275.5 Z"/></g>
<g><path style="opacity:1" fill="#0c8f9c" d="M 600.5,229.5 C 605.099,229.2 609.599,229.533 614,230.5C 618.314,240.959 622.481,251.459 626.5,262C 639.432,263.286 652.098,265.786 664.5,269.5C 671.615,260.546 678.948,251.712 686.5,243C 696.582,245.457 705.749,249.957 714,256.5C 712.944,266.057 710.611,275.39 707,284.5C 706.333,286.5 706.333,288.5 707,290.5C 714.136,296.635 720.969,303.135 727.5,310C 729.344,311.182 731.177,312.349 733,313.5C 742.083,310.528 751.25,307.861 760.5,305.5C 762.383,305.876 763.883,306.876 765,308.5C 769.554,315.774 773.721,323.274 777.5,331C 777.138,332.225 776.638,333.391 776,334.5C 769.333,340.5 762.667,346.5 756,352.5C 755.333,354.5 755.333,356.5 756,358.5C 758.96,367.674 761.294,377.008 763,386.5C 763.833,387.333 764.667,388.167 765.5,389C 776.617,391.32 787.451,394.486 798,398.5C 798.931,408.926 798.431,419.259 796.5,429.5C 785.565,431.261 774.565,432.761 763.5,434C 762.333,434.5 761.5,435.333 761,436.5C 758.782,445.375 755.948,454.042 752.5,462.5C 760.167,470.5 767.833,478.5 775.5,486.5C 771.43,494.725 766.764,502.559 761.5,510C 760.5,510.5 759.5,511 758.5,511.5C 749.167,507.5 739.833,503.5 730.5,499.5C 723.049,505.449 716.049,511.949 709.5,519C 705.183,519.621 701.016,519.121 697,517.5C 696.333,506.833 696.333,496.167 697,485.5C 730.662,450.493 739.996,409.827 725,363.5C 701.665,312.079 661.831,288.912 605.5,294C 597.153,295.628 588.987,297.794 581,300.5C 580.667,300.167 580.333,299.833 580,299.5C 580.474,278.261 581.141,256.928 582,235.5C 582.833,234.667 583.667,233.833 584.5,233C 589.965,231.796 595.299,230.63 600.5,229.5 Z"/></g>
<g><path style="opacity:1" fill="#8993a5" d="M 510.5,160.5 C 510.56,159.957 510.893,159.624 511.5,159.5C 512.832,273.333 512.832,386.999 511.5,500.5C 511.833,386.999 511.5,273.665 510.5,160.5 Z"/></g>
<g><path style="opacity:1" fill="#cdd3db" d="M 524.5,153.5 C 523.501,209.664 523.168,265.998 523.5,322.5C 522.169,265.999 522.169,209.332 523.5,152.5C 524.107,152.624 524.44,152.957 524.5,153.5 Z"/></g>
<g><path style="opacity:1" fill="#032658" d="M 478.5,222.5 C 480.911,222.137 482.411,223.137 483,225.5C 483.806,317.171 483.473,408.838 482,500.5C 471.582,501.487 461.082,501.82 450.5,501.5C 450.167,414.497 450.5,327.497 451.5,240.5C 460.728,234.728 469.728,228.728 478.5,222.5 Z"/></g>
<g><path style="opacity:1" fill="#0e1e3e" d="M 299.5,209.5 C 328.952,226.063 358.952,241.896 389.5,257C 396.5,257.333 403.5,257.667 410.5,258C 414.003,262.668 417.003,267.668 419.5,273C 411.672,274.466 403.672,274.966 395.5,274.5C 395.458,277.585 394.125,279.919 391.5,281.5C 390.167,301.833 390.167,322.167 391.5,342.5C 394.297,343.791 395.63,345.958 395.5,349C 394.601,352.969 393.268,356.802 391.5,360.5C 392.607,362.881 393.273,365.381 393.5,368C 393.414,372.749 391.08,374.415 386.5,373C 383.616,371.963 382.95,370.129 384.5,367.5C 387.296,371.599 389.629,371.432 391.5,367C 389.384,362.601 386.884,358.434 384,354.5C 381.196,349.17 382.196,344.837 387,341.5C 387.667,321.833 387.667,302.167 387,282.5C 385.198,281.211 384.031,279.544 383.5,277.5C 386.303,279.953 389.303,280.12 392.5,278C 393.23,275.399 393.563,272.899 393.5,270.5C 390.477,260.279 386.477,259.946 381.5,269.5C 384.768,270.487 388.102,270.82 391.5,270.5C 389.611,271.322 387.611,272.155 385.5,273C 384.177,273.816 383.511,274.983 383.5,276.5C 360.396,274.526 337.063,273.859 313.5,274.5C 313.334,280.842 313.5,287.175 314,293.5C 314.667,294.833 315.333,294.833 316,293.5C 316.118,290.629 316.784,287.962 318,285.5C 319.955,290.437 319.955,295.437 318,300.5C 316.559,301.87 314.892,302.87 313,303.5C 312.5,317.829 312.333,332.163 312.5,346.5C 312.5,363.833 312.5,381.167 312.5,398.5C 313.5,398.5 314.5,398.5 315.5,398.5C 316.649,398.791 317.316,399.624 317.5,401C 316.825,403.267 315.325,404.767 313,405.5C 312.5,437.498 312.333,469.498 312.5,501.5C 309.997,500.235 307.663,500.568 305.5,502.5C 304.875,497.533 302.542,493.533 298.5,490.5C 294.626,493.578 292.293,497.578 291.5,502.5C 295.833,502.5 300.167,502.5 304.5,502.5C 301.642,503.166 298.642,503.833 295.5,504.5C 293.195,507.713 290.195,508.713 286.5,507.5C 289.597,506.806 289.931,505.806 287.5,504.5C 284.228,505.956 280.894,507.29 277.5,508.5C 277.054,505.99 277.72,503.99 279.5,502.5C 281.167,502.5 282.833,502.5 284.5,502.5C 284.5,483.167 284.5,463.833 284.5,444.5C 284.5,431.167 284.5,417.833 284.5,404.5C 280.013,404.859 278.346,403.026 279.5,399C 281.134,398.506 282.801,398.34 284.5,398.5C 284.667,370.165 284.5,341.831 284,313.5C 283.667,310.5 283.333,307.5 283,304.5C 280.273,303.241 278.439,301.241 277.5,298.5C 282.339,302.81 287.672,303.476 293.5,300.5C 295.832,301.172 298.166,301.339 300.5,301C 304.398,295.429 307.898,289.595 311,283.5C 311.667,281.5 311.667,279.5 311,277.5C 308.242,276.883 305.409,276.716 302.5,277C 301.667,276.167 300.833,275.333 300,274.5C 299.867,271.475 298.867,268.808 297,266.5C 294.931,268.085 292.764,269.419 290.5,270.5C 291.793,268.704 293.293,267.037 295,265.5C 296.009,263.975 296.509,262.308 296.5,260.5C 289.853,260.491 287.186,263.825 288.5,270.5C 287.624,270.369 286.957,270.702 286.5,271.5C 284.979,275.845 284.313,280.345 284.5,285C 284.584,288.693 285.25,292.193 286.5,295.5C 284.73,296.635 282.564,296.635 280,295.5C 278.624,295.684 277.791,296.351 277.5,297.5C 276.359,294.36 276.192,291.027 277,287.5C 277.667,286.167 278.333,286.167 279,287.5C 279.497,289.81 279.663,292.143 279.5,294.5C 281.124,294.64 282.29,293.973 283,292.5C 283.499,286.509 283.666,280.509 283.5,274.5C 268.833,274.5 254.167,274.5 239.5,274.5C 238.836,279.473 238.503,284.473 238.5,289.5C 226.5,289.5 214.5,289.5 202.5,289.5C 202.002,284.848 201.669,280.181 201.5,275.5C 203.175,278.507 203.841,281.84 203.5,285.5C 214.795,286.434 226.129,286.768 237.5,286.5C 237.271,279.215 236.271,272.049 234.5,265C 234.821,260.414 235.321,255.914 236,251.5C 234.266,250.751 232.433,250.251 230.5,250C 220.839,249.5 211.172,249.334 201.5,249.5C 201.5,257.833 201.5,266.167 201.5,274.5C 197.486,274.666 193.486,274.499 189.5,274C 188.978,273.439 188.645,272.772 188.5,272C 190.277,267.613 192.443,263.446 195,259.5C 199.128,257.085 200.628,253.419 199.5,248.5C 211.505,248.667 223.505,248.5 235.5,248C 254.585,236.733 273.252,224.899 291.5,212.5C 293.745,213.292 294.078,214.625 292.5,216.5C 274.466,226.603 256.966,237.603 240,249.5C 239.503,252.146 239.336,254.813 239.5,257.5C 254.848,257.833 270.181,257.499 285.5,256.5C 289.118,243.361 291.785,230.027 293.5,216.5C 295.438,215.539 296.938,216.205 298,218.5C 300.509,215.795 301.009,212.795 299.5,209.5 Z"/></g>
<g><path style="opacity:1" fill="#eff0f2" d="M 305.5,502.5 C 305.167,502.5 304.833,502.5 304.5,502.5C 300.167,502.5 295.833,502.5 291.5,502.5C 292.293,497.578 294.626,493.578 298.5,490.5C 302.542,493.533 304.875,497.533 305.5,502.5 Z"/></g>
<g><path style="opacity:1" fill="#edeef1" d="M 306.5,475.5 C 307.821,478.598 308.488,482.098 308.5,486C 308.167,489.5 307.833,493 307.5,496.5C 304.458,493.742 302.458,490.408 301.5,486.5C 302.725,482.616 304.392,478.949 306.5,475.5 Z"/></g>
<g><path style="opacity:1" fill="#edeef0" d="M 287.5,474.5 C 291.496,477.181 294.496,480.847 296.5,485.5C 294.329,489.844 291.663,493.844 288.5,497.5C 287.503,489.862 287.169,482.196 287.5,474.5 Z"/></g>
<g><path style="opacity:1" fill="#f3f4f5" d="M 297.5,455.5 C 302.003,458.795 305.337,463.128 307.5,468.5C 305.241,473.354 302.241,477.687 298.5,481.5C 294.813,477.305 291.479,472.805 288.5,468C 291.877,464.069 294.877,459.902 297.5,455.5 Z"/></g>
<g><path style="opacity:1" fill="#edeef0" d="M 306.5,441.5 C 307.82,444.428 308.486,447.761 308.5,451.5C 308.167,454.833 307.833,458.167 307.5,461.5C 304.674,458.516 302.341,455.183 300.5,451.5C 302.511,448.139 304.511,444.806 306.5,441.5 Z"/></g>
<g><path style="opacity:1" fill="#e6e7eb" d="M 287.5,440.5 C 288.496,440.414 289.329,440.748 290,441.5C 291.986,444.646 293.819,447.813 295.5,451C 294.056,455.39 291.723,459.224 288.5,462.5C 287.503,455.197 287.169,447.863 287.5,440.5 Z"/></g>
<g><path style="opacity:1" fill="#f2f3f4" d="M 296.5,423.5 C 298.903,423.393 300.736,424.393 302,426.5C 303.709,429.418 305.542,432.252 307.5,435C 304.694,439.306 301.694,443.473 298.5,447.5C 294.627,443.791 291.294,439.624 288.5,435C 291.802,431.544 294.469,427.711 296.5,423.5 Z"/></g>
<g><path style="opacity:1" fill="#ebedef" d="M 306.5,408.5 C 307.82,411.428 308.486,414.761 308.5,418.5C 308.167,421.833 307.833,425.167 307.5,428.5C 304.573,425.744 302.24,422.578 300.5,419C 302.739,415.604 304.739,412.104 306.5,408.5 Z"/></g>
<g><path style="opacity:1" fill="#eeeff1" d="M 287.5,408.5 C 291.056,411.391 294.056,414.891 296.5,419C 293.955,422.59 291.288,426.09 288.5,429.5C 287.503,422.532 287.17,415.532 287.5,408.5 Z"/></g>
<g><path style="opacity:1" fill="#f0f0f2" d="M 290.5,404.5 C 295.844,404.334 301.177,404.501 306.5,405C 304.026,408.775 301.193,412.275 298,415.5C 294.862,412.208 292.362,408.542 290.5,404.5 Z"/></g>
<g><path style="opacity:1" fill="#ebedf0" d="M 297.5,386.5 C 310.717,397.836 308.551,401.502 291,397.5C 292.093,393.332 294.259,389.665 297.5,386.5 Z"/></g>
<g><path style="opacity:1" fill="#edeff1" d="M 306.5,372.5 C 307.82,375.428 308.486,378.761 308.5,382.5C 308.167,385.833 307.833,389.167 307.5,392.5C 304.674,389.516 302.341,386.183 300.5,382.5C 302.523,379.111 304.523,375.778 306.5,372.5 Z"/></g>
<g><path style="opacity:1" fill="#eceef0" d="M 287.5,372.5 C 288.496,372.414 289.329,372.748 290,373.5C 291.796,376.927 293.963,380.094 296.5,383C 293.955,386.59 291.288,390.09 288.5,393.5C 287.503,386.532 287.17,379.532 287.5,372.5 Z"/></g>
<g><path style="opacity:1" fill="#f1f2f3" d="M 297.5,353.5 C 301.544,357.22 304.877,361.553 307.5,366.5C 304.913,371.254 301.746,375.587 298,379.5C 294.344,375.521 291.178,371.188 288.5,366.5C 291.757,362.312 294.757,357.979 297.5,353.5 Z"/></g>
<g><path style="opacity:1" fill="#e9ebee" d="M 306.5,339.5 C 307.82,342.428 308.486,345.761 308.5,349.5C 308.167,352.833 307.833,356.167 307.5,359.5C 304.605,356.768 302.272,353.602 300.5,350C 302.39,346.38 304.39,342.88 306.5,339.5 Z"/></g>
<g><path style="opacity:1" fill="#edeff1" d="M 287.5,338.5 C 291.179,341.474 294.179,345.141 296.5,349.5C 293.833,353.5 291.167,357.5 288.5,361.5C 287.503,353.862 287.169,346.196 287.5,338.5 Z"/></g>
<g><path style="opacity:1" fill="#f2f2f4" d="M 296.5,322.5 C 297.552,322.351 298.552,322.517 299.5,323C 302.531,326.23 305.197,329.73 307.5,333.5C 304.822,338.188 301.656,342.521 298,346.5C 294.833,342 291.667,337.5 288.5,333C 291.383,329.624 294.049,326.124 296.5,322.5 Z"/></g>
<g><path style="opacity:1" fill="#eceef0" d="M 306.5,308.5 C 307.818,311.258 308.485,314.424 308.5,318C 308.167,321.167 307.833,324.333 307.5,327.5C 304.605,324.768 302.272,321.602 300.5,318C 302.313,314.693 304.313,311.526 306.5,308.5 Z"/></g>
<g><path style="opacity:1" fill="#e4e6ea" d="M 287.5,307.5 C 291.11,310.118 294.11,313.452 296.5,317.5C 294.183,321.146 291.516,324.48 288.5,327.5C 287.503,320.866 287.17,314.2 287.5,307.5 Z"/></g>
<g><path style="opacity:1" fill="#f1f2f3" d="M 300.5,304.5 C 302.527,304.338 304.527,304.505 306.5,305C 304.021,308.313 301.355,311.48 298.5,314.5C 295.444,312.051 293.111,309.051 291.5,305.5C 294.287,304.523 297.287,304.19 300.5,304.5 Z"/></g>
<g><path style="opacity:1" fill="#6e7991" d="M 300.5,304.5 C 297.287,304.19 294.287,304.523 291.5,305.5C 290.957,305.44 290.624,305.107 290.5,304.5C 293.98,303.194 297.313,303.194 300.5,304.5 Z"/></g>
<g><path style="opacity:1" fill="#012455" d="M 391.5,270.5 C 392.167,270.5 392.833,270.5 393.5,270.5C 393.563,272.899 393.23,275.399 392.5,278C 389.303,280.12 386.303,279.953 383.5,277.5C 383.5,277.167 383.5,276.833 383.5,276.5C 383.511,274.983 384.177,273.816 385.5,273C 387.611,272.155 389.611,271.322 391.5,270.5 Z"/></g>
<g><path style="opacity:1" fill="#eeeff1" d="M 318.5,263.5 C 322.833,264.5 325.5,267.167 326.5,271.5C 322.833,271.5 319.167,271.5 315.5,271.5C 315.957,268.594 316.957,265.928 318.5,263.5 Z"/></g>
<g><path style="opacity:1" fill="#e9ebee" d="M 277.5,263.5 C 281.012,264.005 283.345,266.005 284.5,269.5C 280.645,271.003 276.645,271.67 272.5,271.5C 272.351,270.448 272.517,269.448 273,268.5C 274.707,266.963 276.207,265.296 277.5,263.5 Z"/></g>
<g><path style="opacity:1" fill="#ebedef" d="M 393.5,270.5 C 392.833,270.5 392.167,270.5 391.5,270.5C 388.102,270.82 384.768,270.487 381.5,269.5C 386.477,259.946 390.477,260.279 393.5,270.5 Z"/></g>
<g><path style="opacity:1" fill="#f0f1f3" d="M 367.5,262.5 C 371.602,264.266 374.269,267.266 375.5,271.5C 370.786,271.827 366.12,271.493 361.5,270.5C 363.14,267.532 365.14,264.865 367.5,262.5 Z"/></g>
<g><path style="opacity:1" fill="#eeeff1" d="M 407.5,261.5 C 410.996,263.807 412.996,267.14 413.5,271.5C 409.5,271.5 405.5,271.5 401.5,271.5C 402.464,267.576 404.464,264.243 407.5,261.5 Z"/></g>
<g><path style="opacity:1" fill="#f0f1f3" d="M 344.5,260.5 C 348.403,263.32 351.069,266.987 352.5,271.5C 347.167,271.5 341.833,271.5 336.5,271.5C 336.351,270.448 336.517,269.448 337,268.5C 339.705,265.964 342.205,263.297 344.5,260.5 Z"/></g>
<g><path style="opacity:1" fill="#e5e7eb" d="M 280.5,260.5 C 281.833,260.5 283.167,260.5 284.5,260.5C 283.759,265.503 282.426,265.503 280.5,260.5 Z"/></g>
<g><path style="opacity:1" fill="#e7e9ec" d="M 197.5,260.5 C 198.75,260.577 199.583,261.244 200,262.5C 200.667,265.167 200.667,267.833 200,270.5C 197.959,271.423 195.792,271.756 193.5,271.5C 194.001,267.505 195.334,263.838 197.5,260.5 Z"/></g>
<g><path style="opacity:1" fill="#eeeff1" d="M 390.5,261.5 C 394.981,260.352 399.648,260.185 404.5,261C 402.326,264.004 399.992,266.837 397.5,269.5C 395.144,266.814 392.811,264.147 390.5,261.5 Z"/></g>
<g><path style="opacity:1" fill="#e4e6ea" d="M 372.5,260.5 C 385.203,258.166 387.037,260.832 378,268.5C 375.406,266.296 373.572,263.63 372.5,260.5 Z"/></g>
<g><path style="opacity:1" fill="#edeff1" d="M 349.5,261.5 C 354.348,260.186 359.348,260.186 364.5,261.5C 362.167,264.167 359.833,266.833 357.5,269.5C 354.452,267.118 351.785,264.452 349.5,261.5 Z"/></g>
<g><path style="opacity:1" fill="#f0f2f3" d="M 322.5,261.5 C 328.319,260.347 334.319,260.181 340.5,261C 338.021,264.647 335.021,267.813 331.5,270.5C 328.265,267.66 325.265,264.66 322.5,261.5 Z"/></g>
<g><path style="opacity:1" fill="#eeeff1" d="M 310.5,260.5 C 312.924,260.192 315.257,260.526 317.5,261.5C 315.885,264.45 313.885,267.116 311.5,269.5C 310.516,266.572 310.183,263.572 310.5,260.5 Z"/></g>
<g><path style="opacity:1" fill="#e0e3e7" d="M 298.5,260.5 C 300.924,260.192 303.257,260.526 305.5,261.5C 305.023,262.478 304.357,263.311 303.5,264C 306.792,264.756 307.792,266.589 306.5,269.5C 303.074,267.08 300.408,264.08 298.5,260.5 Z"/></g>
<g><path style="opacity:1" fill="#edeff1" d="M 290.5,270.5 C 289.833,270.5 289.167,270.5 288.5,270.5C 287.186,263.825 289.853,260.491 296.5,260.5C 296.509,262.308 296.009,263.975 295,265.5C 293.293,267.037 291.793,268.704 290.5,270.5 Z"/></g>
<g><path style="opacity:1" fill="#f1f2f3" d="M 260.5,261.5 C 265.65,260.349 270.984,260.183 276.5,261C 273.667,263.833 270.833,266.667 268,269.5C 265.715,266.568 263.215,263.902 260.5,261.5 Z"/></g>
<g><path style="opacity:1" fill="#ecedf0" d="M 247.5,261.5 C 256.073,259.375 261.406,262.708 263.5,271.5C 261.801,271.66 260.134,271.494 258.5,271C 254.666,267.998 251,264.831 247.5,261.5 Z"/></g>
<g><path style="opacity:1" fill="#eeeff1" d="M 239.5,260.5 C 244.232,261.71 248.066,264.377 251,268.5C 251.483,269.448 251.649,270.448 251.5,271.5C 247.818,271.665 244.152,271.499 240.5,271C 239.544,267.606 239.211,264.106 239.5,260.5 Z"/></g>
<g><path style="opacity:1" fill="#edeff1" d="M 297.5,219.5 C 298.966,220.347 299.8,221.68 300,223.5C 302.593,234.722 304.426,246.056 305.5,257.5C 300.489,257.666 295.489,257.499 290.5,257C 289.941,256.275 289.608,255.442 289.5,254.5C 291.698,242.708 294.365,231.041 297.5,219.5 Z"/></g>
<g><path style="opacity:1" fill="#f6f7f7" d="M 292.5,216.5 C 292.833,216.5 293.167,216.5 293.5,216.5C 291.785,230.027 289.118,243.361 285.5,256.5C 270.181,257.499 254.848,257.833 239.5,257.5C 239.336,254.813 239.503,252.146 240,249.5C 256.966,237.603 274.466,226.603 292.5,216.5 Z"/></g>
<g><path style="opacity:1" fill="#f5f6f6" d="M 302.5,216.5 C 314.376,221.437 326.042,226.937 337.5,233C 352.189,240.341 366.522,248.175 380.5,256.5C 357.131,257.823 333.798,257.823 310.5,256.5C 306.684,243.422 304.018,230.089 302.5,216.5 Z"/></g>
<g><path style="opacity:1" fill="#0b1c3c" d="M 565.5,182.5 C 567.229,183.117 568.729,184.117 570,185.5C 570.5,219.498 570.667,253.498 570.5,287.5C 569.833,292.5 569.167,297.5 568.5,302.5C 567.5,301.833 566.5,301.167 565.5,300.5C 565.783,299.711 566.283,299.044 567,298.5C 567.937,264.836 568.27,231.169 568,197.5C 566.5,194.867 566.333,192.2 567.5,189.5C 566.365,187.201 565.032,185.034 563.5,183C 564.094,182.536 564.761,182.369 565.5,182.5 Z"/></g>
<g><path style="opacity:1" fill="#002456" d="M 495.5,492.5 C 495.667,395.499 495.5,298.499 495,201.5C 494.617,200.944 494.117,200.611 493.5,200.5C 493.265,199.903 492.765,199.57 492,199.5C 489.536,200.161 487.036,200.661 484.5,201C 483.642,202.788 482.642,204.622 481.5,206.5C 477.634,209.386 473.3,211.22 468.5,212C 467.261,216.457 466.594,216.457 466.5,212C 466.908,210.07 467.575,208.236 468.5,206.5C 467.246,204.666 466.579,202.666 466.5,200.5C 469.228,196.263 472.561,192.429 476.5,189C 481.713,184.575 487.046,180.408 492.5,176.5C 496.985,174.073 500.985,170.907 504.5,167C 506.274,165.244 507.941,165.244 509.5,167C 508.791,275.759 508.791,384.259 509.5,492.5C 509.333,494.5 509.167,496.5 509,498.5C 505.7,499.869 502.533,499.536 499.5,497.5C 498.511,495.414 497.178,493.747 495.5,492.5 Z"/></g>
<g><path style="opacity:1" fill="#002456" d="M 536.5,161.5 C 539.81,163.482 542.81,165.815 545.5,168.5C 547.89,172.765 550.89,176.598 554.5,180C 557.146,180.497 559.813,180.664 562.5,180.5C 563.71,180.932 564.71,181.599 565.5,182.5C 564.761,182.369 564.094,182.536 563.5,183C 565.032,185.034 566.365,187.201 567.5,189.5C 566.333,192.2 566.5,194.867 568,197.5C 568.27,231.169 567.937,264.836 567,298.5C 566.283,299.044 565.783,299.711 565.5,300.5C 558.167,304.833 550.833,309.167 543.5,313.5C 543.44,312.957 543.107,312.624 542.5,312.5C 537.182,313.76 532.182,315.76 527.5,318.5C 526.558,318.392 525.725,318.059 525,317.5C 524.333,278.167 524.333,238.833 525,199.5C 525.183,191.255 525.683,183.088 526.5,175C 523.524,169.5 524.024,164.333 528,159.5C 530.647,161.959 533.48,162.625 536.5,161.5 Z"/></g>
<g><path style="opacity:1" fill="#071b3a" d="M 510.5,160.5 C 511.5,273.665 511.833,386.999 511.5,500.5C 506.36,501.488 501.026,501.821 495.5,501.5C 495.5,498.5 495.5,495.5 495.5,492.5C 497.178,493.747 498.511,495.414 499.5,497.5C 502.533,499.536 505.7,499.869 509,498.5C 509.167,496.5 509.333,494.5 509.5,492.5C 508.791,384.259 508.791,275.759 509.5,167C 507.941,165.244 506.274,165.244 504.5,167C 500.985,170.907 496.985,174.073 492.5,176.5C 498.177,170.824 504.177,165.491 510.5,160.5 Z"/></g>
<g><path style="opacity:1" fill="#0a1c3c" d="M 524.5,153.5 C 528.772,155.774 532.772,158.441 536.5,161.5C 533.48,162.625 530.647,161.959 528,159.5C 524.024,164.333 523.524,169.5 526.5,175C 525.683,183.088 525.183,191.255 525,199.5C 524.333,238.833 524.333,278.167 525,317.5C 525.725,318.059 526.558,318.392 527.5,318.5C 532.182,315.76 537.182,313.76 542.5,312.5C 543.107,312.624 543.44,312.957 543.5,313.5C 538.943,316.366 534.443,319.366 530,322.5C 528.871,382.162 528.371,441.828 528.5,501.5C 527.167,501.5 525.833,501.5 524.5,501.5C 524.354,499.058 525.187,498.391 527,499.5C 527.833,442.83 527.667,386.164 526.5,329.5C 525.914,329.709 525.414,330.043 525,330.5C 524.826,335.351 524.326,340.018 523.5,344.5C 523.5,337.167 523.5,329.833 523.5,322.5C 523.168,265.998 523.501,209.664 524.5,153.5 Z"/></g>
<g><path style="opacity:1" fill="#108f9c" d="M 487.5,67.5 C 592.696,62.1385 678.529,99.8052 745,180.5C 771.747,216.002 789.247,255.668 797.5,299.5C 793.491,299.142 789.491,298.642 785.5,298C 783.324,297.837 781.491,297.004 780,295.5C 757.183,229.028 716.683,176.195 658.5,137C 592.871,97.6996 522.371,85.1996 447,99.5C 379.482,112.828 322.648,144.662 276.5,195C 270.786,195.632 265.119,195.299 259.5,194C 306.249,130.924 368.249,90.9241 445.5,74C 459.597,71.4821 473.597,69.3154 487.5,67.5 Z"/></g>
<g><path style="opacity:1" fill="#022657" d="M 980.5,230.5 C 979.784,230.783 978.951,231.116 978,231.5C 976.304,233.56 975.137,235.893 974.5,238.5C 975.821,240.332 976.821,242.332 977.5,244.5C 973.989,243.155 970.822,241.155 968,238.5C 965.836,241.447 965.002,244.781 965.5,248.5C 954.653,199.473 933.153,155.807 901,117.5C 852.4,63.5735 791.9,33.7402 719.5,28C 576.167,27.3333 432.833,27.3333 289.5,28C 241.909,30.5491 197.909,43.8824 157.5,68C 81.9524,117.31 39.7857,187.143 31,277.5C 30.5,394.166 30.3333,510.833 30.5,627.5C 29.6682,646.329 29.1682,665.329 29,684.5C 28.3333,547.167 28.3333,409.833 29,272.5C 30.8128,258.852 32.4795,245.185 34,231.5C 34.7731,228.789 35.9398,226.289 37.5,224C 36.9221,222.189 36.4221,220.355 36,218.5C 35.2496,219.126 34.4162,219.626 33.5,220C 32.0764,224.34 29.7431,228.173 26.5,231.5C 24.2767,226.255 25.61,222.422 30.5,220C 26.7336,216.157 25.2336,211.657 26,206.5C 25.1249,209.401 23.9582,212.068 22.5,214.5C 36.5156,165.313 62.1823,123.146 99.5,88C 151.285,40.9554 212.285,14.9554 282.5,10C 434.5,9.33333 586.5,9.33333 738.5,10C 803.493,19.2009 858.993,47.0342 905,93.5C 938.41,126.989 962.077,166.322 976,211.5C 978.226,217.674 979.726,224.007 980.5,230.5 Z"/></g>
<g><path style="opacity:1" fill="#082757" d="M 299.5,209.5 C 301.009,212.795 300.509,215.795 298,218.5C 296.938,216.205 295.438,215.539 293.5,216.5C 293.167,216.5 292.833,216.5 292.5,216.5C 294.078,214.625 293.745,213.292 291.5,212.5C 293.715,209.704 296.381,208.704 299.5,209.5 Z"/></g>
<g><path style="opacity:1" fill="#142343" d="M 493.5,200.5 C 484.241,206.419 475.241,212.753 466.5,219.5C 465.183,213.012 465.183,206.678 466.5,200.5C 466.579,202.666 467.246,204.666 468.5,206.5C 467.575,208.236 466.908,210.07 466.5,212C 466.594,216.457 467.261,216.457 468.5,212C 473.3,211.22 477.634,209.386 481.5,206.5C 482.642,204.622 483.642,202.788 484.5,201C 487.036,200.661 489.536,200.161 492,199.5C 492.765,199.57 493.265,199.903 493.5,200.5 Z"/></g>
<g><path style="opacity:1" fill="#0d1e3e" d="M 545.5,168.5 C 551.701,171.765 557.368,175.765 562.5,180.5C 559.813,180.664 557.146,180.497 554.5,180C 550.89,176.598 547.89,172.765 545.5,168.5 Z"/></g>
<g><path style="opacity:1" fill="#1a2846" d="M 524.5,122.5 C 525.117,122.611 525.617,122.944 526,123.5C 526.801,130.889 526.467,138.223 525,145.5C 523.866,141.847 523.366,138.014 523.5,134C 523.533,130.085 523.867,126.251 524.5,122.5 Z"/></g>
</svg>
