  <svg version="1.0" xmlns="http://www.w3.org/2000/svg"  width="1800.000000pt" height="1800.000000pt" viewBox="0 0 1800.000000 1800.000000"  preserveAspectRatio="xMidYMid meet"> <g transform="translate(0.000000,1800.000000) scale(0.100000,-0.100000)" fill="#000000" stroke="none"> <path d="M8815 13159 l-130 -5 -40 -14 -40 -15 -45 -45 -45 -45 -18 -56 -17 -56 0 -104 0 -104 19 -73 c11 -41 31 -91 45 -112 l25 -38 48 -26 48 -27 77 -12 76 -11 101 12 101 12 42 21 c50 26 71 45 92 86 l16 32 -1 93 0 93 -17 45 -17 44 -25 7 c-14 4 -84 7 -157 8 l-132 1 -9 -17 c-5 -10 -7 -38 -3 -63 l6 -45 99 -5 100 -5 9 -34 c5 -19 6 -50 2 -68 l-6 -33 -32 -17 -32 -17 -101 -4 -101 -4 -42 22 -43 21 -19 42 -19 42 0 100 c0 118 11 166 47 199 l26 24 79 12 80 13 87 -8 c47 -5 111 -9 141 -9 l55 -1 3 55 3 55 -13 16 -13 17 -90 3 c-49 3 -148 2 -220 -2z"/> <path d="M9404 13149 l-21 -7 -6 -79 c-3 -43 -11 -109 -16 -148 -6 -38 -17 -131 -26 -205 -9 -74 -21 -161 -26 -194 -6 -32 -8 -64 -5 -71 6 -16 68 -35 115 -35 37 0 170 -22 290 -48 l74 -16 13 18 c7 10 16 36 19 59 l7 41 -17 12 c-10 7 -38 16 -64 19 -25 3 -97 13 -158 22 l-113 16 -1 11 c-2 31 3 133 7 149 l5 17 24 0 c14 0 57 -6 97 -14 40 -8 100 -19 133 -25 l59 -11 14 14 c7 7 16 32 19 55 l6 41 -12 13 -11 14 -77 6 c-43 3 -113 12 -155 18 l-78 13 0 27 c0 42 20 128 32 135 13 8 186 -13 260 -32 32 -8 71 -14 88 -14 l30 0 10 26 c6 14 10 40 10 58 l0 34 -15 12 c-8 7 -52 16 -97 21 -46 5 -103 13 -128 19 -25 5 -79 12 -120 15 -41 4 -91 10 -110 14 -20 5 -45 5 -56 0z"/> <path d="M7905 13024 c-79 -28 -95 -43 -95 -93 0 -20 -4 -70 -9 -111 -6 -41 -17 -147 -26 -235 -18 -190 -32 -302 -41 -332 l-6 -23 39 0 c22 0 58 9 80 20 l41 20 9 72 8 73 45 13 c103 29 157 45 197 59 55 20 72 13 113 -50 l36 -52 31 -3 31 -3 38 18 c55 26 53 38 -23 140 -37 51 -74 100 -81 110 -7 10 -67 95 -135 190 -67 95 -126 179 -132 187 -5 8 -19 17 -30 20 l-20 5 -70 -25z m82 -197 c12 -17 42 -61 68 -97 25 -36 53 -75 62 -88 l15 -22 -12 -15 c-7 -8 -23 -15 -35 -15 -12 0 -39 -7 -58 -15 -20 -8 -55 -15 -78 -15 l-42 0 7 63 c3 34 11 101 17 150 l12 87 11 0 c6 0 21 -15 33 -33z"/> <path d="M10146 13008 c-8 -13 -18 -36 -22 -53 -4 -16 -10 -34 -14 -40 -4 -5 -10 -21 -13 -35 -3 -14 -22 -70 -42 -125 -20 -55 -40 -115 -45 -134 -5 -18 -13 -38 -19 -44 -6 -6 -11 -17 -11 -25 0 -13 -11 -43 -45 -117 -36 -80 -30 -100 40 -126 68 -26 62 -35 140 201 51 154 70 200 85 200 17 0 18 -17 8 -195 -15 -284 -17 -271 46 -299 78 -36 61 -46 207 124 218 254 234 266 190 147 -13 -34 -30 -80 -38 -102 -8 -22 -30 -71 -49 -110 -20 -38 -42 -89 -50 -113 l-15 -43 12 -15 c16 -19 83 -54 103 -54 19 0 27 15 60 115 15 44 34 92 42 107 8 14 14 33 14 42 0 8 6 30 14 48 13 31 58 143 94 233 8 22 24 60 35 84 l19 44 -11 23 c-6 13 -19 24 -28 24 -10 1 -36 9 -58 20 -22 11 -48 19 -58 20 l-19 0 -66 -72 c-37 -40 -74 -79 -82 -88 -8 -9 -37 -43 -64 -75 -28 -33 -57 -67 -65 -76 -9 -8 -31 -32 -49 -53 l-33 -38 -16 6 -16 6 8 280 7 280 -12 0 c-7 0 -26 6 -43 14 -30 13 -107 36 -120 36 -4 0 -13 -10 -21 -22z"/> <path d="M7268 12804 c-48 -31 -48 -38 9 -148 196 -383 193 -371 54 -278 -47 32 -129 87 -181 122 -52 35 -111 76 -132 92 -20 15 -49 31 -65 34 l-29 6 -44 -24 c-111 -60 -110 -40 -10 -236 77 -152 142 -288 194 -403 14 -31 32 -59 39 -62 18 -7 117 49 117 66 0 14 -156 326 -171 341 -5 6 -9 17 -9 25 0 8 -7 22 -16 32 l-16 18 5 15 6 16 18 -7 c10 -4 29 -14 43 -24 14 -9 72 -47 130 -84 58 -37 122 -79 143 -94 21 -14 46 -31 57 -37 11 -6 28 -18 38 -27 10 -9 32 -19 48 -23 l30 -6 62 33 62 32 0 20 c0 11 -34 90 -76 176 -42 86 -84 174 -94 196 -11 22 -42 88 -70 148 l-50 107 -28 -1 c-15 0 -44 -11 -64 -25z"/> <path d="M11086 12522 c-60 -102 -223 -356 -308 -478 l-27 -39 5 -21 c3 -11 26 -34 52 -52 26 -17 70 -47 97 -66 28 -20 58 -41 69 -48 40 -27 152 -108 171 -123 10 -8 27 -15 36 -15 l17 0 21 36 c12 19 21 45 21 58 l0 22 -150 99 -150 99 0 16 c0 9 5 21 10 26 6 6 21 31 34 55 l24 44 24 3 25 3 99 -73 c107 -80 161 -115 167 -107 2 2 16 26 31 53 l27 48 -13 15 c-14 17 -138 100 -178 119 -34 17 -80 57 -80 71 0 20 69 133 81 133 12 0 115 -63 224 -139 50 -33 98 -61 107 -61 l18 0 30 42 c39 54 38 61 -16 95 -26 15 -57 35 -69 43 -13 8 -45 28 -72 44 -26 16 -94 60 -151 98 -57 37 -111 68 -120 68 l-17 0 -39 -68z"/> <path d="M6285 12199 l-65 -61 0 -30 c0 -25 13 -65 51 -153 26 -63 43 -108 64 -170 13 -39 28 -81 33 -95 15 -35 69 -219 77 -257 3 -17 13 -34 22 -37 l15 -6 37 32 c20 18 44 42 53 54 l16 20 -19 55 c-10 30 -18 64 -19 75 l0 22 113 96 c129 110 117 106 181 61 l50 -35 25 0 26 1 44 41 44 41 -10 16 c-8 13 -85 60 -143 87 -8 4 -33 19 -55 33 -22 14 -49 31 -60 38 -41 25 -180 108 -197 118 -9 6 -56 34 -103 63 -107 64 -101 65 -180 -9z m165 -149 c28 -16 53 -30 55 -30 2 0 24 -13 48 -30 25 -16 49 -30 54 -30 5 0 19 -11 32 -24 l22 -23 -73 -67 c-74 -67 -104 -80 -114 -48 -9 27 -59 159 -81 214 -29 69 -13 79 57 38z"/> <path d="M11653 12053 c-45 -54 -152 -169 -238 -257 -85 -87 -155 -162 -155 -167 0 -9 73 -79 98 -93 l15 -9 26 30 c14 17 54 63 89 104 246 290 253 292 187 44 -16 -59 -33 -134 -44 -190 -7 -39 -14 -62 -44 -159 l-16 -50 10 -19 c15 -28 79 -96 101 -108 l20 -11 254 256 254 256 0 18 c0 10 -18 35 -39 56 l-39 39 -24 -7 c-13 -4 -38 -25 -57 -49 -60 -76 -283 -317 -293 -317 l-10 0 5 43 c5 41 22 116 46 207 7 25 18 70 26 100 7 30 18 75 25 100 42 162 38 183 -37 238 -74 54 -66 57 -160 -55z"/> <path d="M8770 12019 c-247 -16 -616 -91 -785 -159 -11 -4 -42 -16 -70 -25 -92 -32 -418 -189 -495 -238 -19 -12 -50 -31 -68 -42 -290 -174 -673 -542 -878 -845 -59 -85 -192 -315 -224 -385 -78 -172 -92 -201 -101 -217 -5 -10 -9 -23 -9 -29 0 -6 -7 -25 -15 -42 -32 -69 -83 -240 -111 -372 -35 -168 -45 -231 -65 -420 l-20 -200 6 -110 c21 -363 94 -740 190 -980 7 -16 18 -46 25 -65 111 -305 378 -722 622 -970 109 -111 269 -259 296 -274 9 -5 39 -28 67 -50 46 -38 80 -61 263 -180 68 -44 246 -137 337 -176 28 -12 59 -25 70 -30 81 -36 117 -50 165 -65 30 -9 64 -21 75 -26 11 -5 40 -14 65 -20 25 -6 70 -17 100 -24 145 -37 193 -47 290 -61 58 -8 155 -20 215 -25 l110 -11 255 5 255 5 100 16 c189 31 283 53 505 118 57 17 202 69 247 89 23 11 45 19 48 19 39 0 520 270 555 311 3 3 23 19 45 35 154 111 430 366 497 460 13 18 50 67 84 110 112 145 248 361 309 490 75 160 93 200 118 269 44 119 86 251 107 337 11 46 25 99 30 118 14 52 38 192 52 305 l13 100 0 245 0 245 -17 125 c-28 202 -81 452 -109 515 -4 11 -18 49 -30 85 -11 36 -27 79 -34 95 -7 17 -21 52 -30 78 -21 57 -148 308 -188 372 -48 78 -139 213 -154 230 -10 11 -31 39 -47 63 -245 360 -772 768 -1251 967 -49 20 -99 41 -110 45 -137 58 -491 147 -675 170 -222 29 -398 34 -630 19z m15 -99 c9 -14 7 -1842 -2 -1850 -4 -4 -52 -11 -106 -14 l-97 -7 -5 13 c-2 7 -6 143 -9 302 l-5 289 9 17 c5 10 25 27 44 38 l35 21 20 40 c26 50 26 94 2 148 l-19 42 -41 27 c-23 15 -41 34 -42 43 0 9 0 125 0 257 l1 242 -15 12 -15 13 -79 -7 c-85 -7 -230 -40 -274 -63 l-28 -14 7 -22 c3 -12 12 -28 19 -36 l13 -13 54 12 c29 7 72 18 96 26 23 8 61 14 82 14 l40 0 0 -218 0 -217 -36 -20 c-41 -22 -79 -74 -89 -122 l-6 -31 11 -44 c11 -42 53 -98 74 -98 5 0 18 -7 28 -17 l18 -16 0 -338 c0 -185 3 -344 6 -353 l6 -16 188 0 188 0 11 14 11 13 3 969 2 969 165 3 c159 3 221 -2 415 -33 196 -30 180 -17 176 -140 l-3 -91 64 -18 c83 -24 253 -80 303 -101 115 -47 290 -132 361 -176 36 -21 67 -39 70 -39 7 0 178 -115 249 -169 122 -91 323 -279 412 -386 72 -86 202 -261 227 -305 12 -20 39 -67 61 -103 l40 -67 17 0 c9 0 23 3 32 6 l16 6 0 25 c0 77 -273 445 -495 668 -96 96 -319 276 -410 332 -11 7 -51 31 -88 55 -149 94 -288 164 -434 221 -99 39 -123 47 -218 78 -55 18 -106 38 -114 45 l-14 13 9 43 10 43 39 -2 c21 -2 43 -7 49 -13 5 -5 19 -10 31 -10 11 0 33 -7 49 -15 15 -8 35 -15 42 -15 53 0 434 -175 589 -270 23 -14 48 -29 57 -35 80 -48 321 -230 384 -290 169 -158 324 -325 394 -425 192 -274 307 -480 395 -710 10 -25 24 -59 31 -77 8 -17 14 -37 14 -45 0 -8 4 -18 10 -24 5 -5 14 -30 19 -54 6 -25 21 -85 34 -135 47 -174 77 -393 84 -620 l5 -160 -11 -120 c-26 -275 -30 -299 -68 -470 -25 -109 -84 -304 -110 -364 -12 -29 -23 -58 -23 -64 0 -27 -171 -367 -245 -487 -307 -496 -827 -935 -1335 -1127 -36 -13 -92 -35 -125 -48 -33 -12 -107 -37 -165 -54 -58 -18 -120 -37 -137 -42 -18 -6 -54 -14 -80 -19 -67 -11 -159 -29 -219 -42 -28 -6 -95 -11 -150 -12 l-99 -1 -2 919 -3 919 11 13 11 14 93 0 93 0 10 -12 9 -13 5 -292 c3 -161 2 -293 -2 -293 -4 0 -27 -18 -51 -39 l-45 -39 -13 -50 -12 -50 11 -43 c13 -47 49 -92 92 -115 l28 -14 2 -267 3 -266 18 -11 17 -11 28 15 27 16 1 264 2 264 11 4 c29 10 75 60 92 100 41 96 14 170 -85 231 l-38 24 3 333 3 334 -10 10 -10 10 -195 -2 -194 -3 -3 -981 -2 -982 -13 -5 c-19 -7 -413 12 -492 24 -176 27 -201 31 -340 65 -99 24 -264 74 -310 93 -11 5 -40 17 -65 26 -25 10 -78 33 -118 52 -41 18 -75 33 -77 33 -38 0 -369 213 -571 368 -95 73 -348 323 -427 422 -64 81 -171 229 -200 279 -18 29 -45 74 -60 100 -45 74 -197 390 -197 409 0 6 -6 23 -14 39 -32 61 -116 369 -136 495 -88 553 -61 961 95 1433 30 88 41 120 74 200 81 199 205 416 361 635 25 34 43 56 99 120 17 19 31 38 31 42 0 28 322 331 465 439 201 152 597 371 730 405 16 4 40 13 54 20 14 8 35 14 47 14 11 0 24 4 30 8 5 5 47 18 94 31 47 12 100 26 117 32 37 11 93 22 238 45 222 35 261 39 270 24z m-211 -1021 l26 -20 0 -34 0 -33 -31 -26 c-48 -41 -108 -27 -129 29 l-9 23 12 31 c19 52 84 67 131 30z m950 -3671 c38 -35 38 -82 1 -122 l-24 -26 -26 0 -27 0 -29 29 -29 29 0 25 0 25 29 31 29 31 25 0 c14 0 37 -10 51 -22z"/> <path d="M9107 11803 c-4 -3 -7 -414 -7 -913 l0 -906 12 -12 12 -12 187 0 188 0 13 19 13 18 -7 119 c-4 66 -7 213 -5 328 l2 208 42 30 c24 16 54 45 68 66 l25 37 0 50 0 50 -20 33 c-11 18 -40 47 -65 64 l-45 32 0 222 0 223 10 6 c6 3 25 2 43 -4 17 -5 66 -19 107 -31 41 -12 84 -25 95 -30 11 -4 65 -25 120 -46 55 -21 114 -46 130 -56 17 -10 39 -18 51 -18 l21 0 11 25 c7 14 12 32 12 39 0 11 -116 76 -136 76 -3 0 -20 6 -37 14 -127 55 -433 140 -484 134 l-28 -3 -3 -277 -2 -277 -45 -31 c-57 -39 -73 -64 -81 -122 l-7 -46 23 -46 22 -46 42 -29 41 -29 -2 -293 c-2 -161 -7 -296 -11 -300 -4 -3 -50 -9 -104 -12 l-96 -6 -11 13 -11 13 0 817 1 816 79 0 79 0 6 20 c3 11 4 28 0 39 l-5 18 -70 12 c-76 12 -163 15 -173 4z m430 -915 l23 -21 0 -31 0 -30 -22 -23 -21 -23 -39 0 -38 0 -20 20 c-11 11 -22 31 -26 44 l-6 25 22 31 21 30 42 0 41 0 23 -22z"/> <path d="M8435 11763 c-33 -8 -91 -21 -130 -30 -339 -73 -828 -309 -1069 -515 -120 -102 -148 -127 -222 -199 -110 -106 -214 -223 -214 -241 0 -55 61 -59 99 -5 17 23 93 103 168 178 l138 136 123 92 c68 51 150 109 183 129 110 67 154 92 179 103 14 6 61 28 105 49 44 21 105 48 135 60 30 12 64 26 75 31 30 13 102 37 175 59 36 11 79 24 95 30 17 5 50 12 75 16 25 3 59 10 75 14 17 5 56 11 88 15 l58 7 -3 41 -3 42 -35 1 c-19 1 -62 -5 -95 -13z"/> <path d="M7895 11377 c-28 -12 -86 -42 -130 -66 -44 -24 -95 -52 -113 -62 -188 -99 -480 -347 -673 -570 -98 -113 -249 -321 -249 -344 0 -4 -9 -19 -19 -33 -22 -31 -87 -159 -126 -247 -14 -33 -32 -73 -39 -90 -217 -485 -245 -1143 -74 -1710 163 -542 459 -973 918 -1336 180 -142 544 -335 595 -315 l15 5 0 271 0 270 33 14 c43 18 82 62 97 109 l12 38 -6 34 c-4 19 -22 53 -41 75 -45 54 -51 39 70 160 l105 105 -2 220 -3 220 -45 0 -45 0 -3 -202 -2 -201 -58 -60 c-31 -33 -79 -85 -106 -116 l-48 -56 -22 0 c-52 0 -113 -67 -131 -145 l-12 -52 12 -37 c15 -44 39 -73 77 -92 l27 -14 0 -210 -1 -210 -8 -5 c-5 -3 -17 -2 -27 4 -10 5 -29 14 -43 20 -14 5 -47 24 -75 41 -27 16 -57 33 -65 37 -8 4 -26 14 -40 24 -14 9 -59 38 -100 65 -41 26 -77 51 -80 54 -3 3 -25 21 -50 40 -221 169 -465 446 -628 715 -65 108 -167 338 -212 480 -12 39 -26 79 -30 90 -8 18 -36 144 -61 270 -17 90 -32 247 -37 405 l-4 155 12 110 c16 148 34 252 68 400 9 42 66 215 81 250 5 11 19 45 31 75 114 281 309 568 562 825 127 129 192 185 323 274 28 19 52 38 55 41 9 13 182 109 280 156 127 61 122 58 134 76 l10 16 -17 26 c-21 31 -28 31 -92 3z m120 -4002 l25 -24 0 -31 0 -31 -25 -24 -24 -25 -24 0 c-13 0 -36 9 -51 21 l-26 20 0 28 c0 72 78 114 125 66z"/> <path d="M10333 11221 c-13 -11 -23 -28 -23 -40 l0 -20 73 -49 c227 -152 271 -186 391 -301 257 -249 493 -609 600 -915 12 -33 24 -65 27 -71 7 -12 42 -128 62 -205 34 -131 49 -214 68 -395 l11 -100 -5 -180 c-8 -256 -34 -424 -104 -665 -9 -30 -22 -68 -28 -85 -7 -16 -20 -52 -30 -80 -29 -82 -42 -113 -127 -282 -44 -90 -85 -163 -89 -163 -5 0 -9 -4 -9 -9 0 -59 -339 -461 -500 -593 -164 -135 -480 -328 -537 -328 l-23 0 0 204 0 203 38 27 c22 15 45 38 53 53 l14 26 0 70 0 70 -54 48 -55 49 -21 0 c-28 0 -37 8 -149 133 l-96 108 0 180 0 180 -22 8 c-12 4 -34 5 -48 1 l-25 -7 2 -208 2 -209 100 -100 c110 -109 112 -112 77 -153 -13 -15 -29 -45 -36 -66 l-12 -39 12 -43 12 -43 37 -35 c20 -19 46 -38 58 -42 l23 -6 2 -267 3 -267 34 2 c19 1 44 6 55 11 89 42 256 127 281 142 17 11 39 24 50 30 34 17 57 32 175 120 l115 85 136 135 c357 355 574 738 698 1230 62 246 73 328 78 595 l4 220 -16 115 c-40 285 -96 503 -181 697 -8 17 -14 34 -14 37 0 8 -95 200 -127 256 -60 104 -215 327 -244 350 -3 3 -37 41 -75 85 -72 83 -183 191 -268 260 -28 22 -66 54 -85 70 -20 17 -63 48 -96 70 -33 22 -62 42 -65 45 -8 8 -98 70 -102 70 -1 -1 -13 -9 -25 -19z m-253 -3842 l25 -21 0 -44 0 -43 -13 -13 c-7 -7 -30 -13 -52 -13 l-40 0 -21 22 -22 22 1 33 1 33 26 23 c32 27 62 28 95 1z"/> <path d="M7929 11106 l-24 -12 -3 -122 -3 -123 -35 -21 c-42 -25 -63 -63 -71 -127 l-5 -47 16 -30 c32 -59 87 -104 128 -104 l24 0 19 -22 c10 -13 61 -72 113 -131 l95 -108 -6 -178 -6 -178 12 -12 c12 -12 46 -15 71 -5 l16 6 0 209 0 208 -62 67 c-35 37 -82 88 -105 113 -51 54 -51 50 -13 92 34 38 45 82 37 141 l-5 40 -29 30 c-15 16 -42 38 -60 49 l-32 20 -3 121 -3 121 -21 8 -21 7 -24 -12z m81 -365 l24 -19 0 -37 0 -38 -23 -18 c-13 -11 -34 -19 -48 -19 l-25 0 -29 29 c-34 35 -35 45 -9 89 l20 32 32 0 c18 0 44 -9 58 -19z"/> <path d="M10006 11104 c-3 -9 -6 -67 -6 -130 l0 -115 -17 -6 c-123 -45 -154 -172 -70 -285 l20 -27 -16 -23 c-9 -13 -54 -63 -101 -112 -47 -49 -86 -96 -86 -105 0 -9 -2 -101 -6 -204 l-5 -188 12 -15 c12 -15 65 -20 72 -6 3 4 8 88 12 186 8 213 3 195 90 291 39 43 80 92 92 108 29 40 41 47 79 47 l31 0 37 36 c46 45 56 70 56 142 l0 57 -18 27 c-10 15 -33 38 -52 51 l-35 23 4 112 3 113 -17 19 -18 20 -27 0 -28 0 -6 -16z m88 -366 c9 -12 16 -35 16 -51 l0 -28 -25 -24 -24 -25 -30 0 -30 0 -21 22 -20 22 0 33 0 33 17 20 17 20 43 0 42 0 15 -22z"/> <path d="M7406 10769 c-21 -5 -56 -23 -76 -39 l-39 -31 -11 -35 -12 -36 4 -50 5 -50 37 -34 c21 -19 51 -41 68 -50 l32 -16 60 6 61 6 169 -169 168 -170 -4 -18 -3 -18 -270 -2 c-149 -2 -275 0 -280 5 -6 4 -23 24 -39 45 l-28 39 -45 19 c-106 45 -218 -15 -237 -128 l-7 -41 10 -39 11 -39 37 -36 38 -36 40 -11 39 -11 37 10 c47 13 84 42 115 91 l24 39 328 2 327 3 3 86 3 85 -83 80 c-45 43 -102 99 -128 124 -25 25 -74 70 -110 101 l-64 56 12 27 c41 91 -7 204 -98 230 -45 13 -55 14 -94 5z m101 -115 c7 -10 13 -33 13 -51 l0 -32 -22 -21 -22 -20 -30 0 c-17 0 -42 9 -54 19 l-24 18 0 38 0 39 23 19 24 19 39 -5 40 -6 13 -17z m-318 -593 l31 -29 0 -24 0 -24 -28 -27 -28 -27 -32 0 -31 0 -27 35 -26 35 6 25 c9 34 45 65 77 65 l27 0 31 -29z"/> <path d="M10492 10762 c-81 -25 -133 -145 -98 -227 l12 -30 -55 -50 c-31 -27 -115 -108 -188 -178 l-131 -129 -4 -77 -4 -76 13 -15 13 -14 321 -2 322 -2 20 -33 c66 -105 203 -120 284 -30 l32 35 7 44 7 44 -12 38 c-47 156 -233 169 -331 22 l-15 -22 -273 -1 c-281 0 -292 1 -292 29 l0 17 168 162 167 163 77 0 76 0 43 33 42 32 14 40 14 40 -5 43 c-7 53 -30 94 -70 123 l-30 23 -51 2 c-27 2 -60 0 -73 -4z m120 -115 c23 -28 22 -45 -1 -83 l-19 -31 -27 -7 -27 -7 -25 16 c-13 9 -29 27 -35 40 l-11 24 12 29 c23 55 98 65 133 19z m305 -579 l23 -21 0 -38 0 -38 -29 -20 c-16 -12 -40 -21 -54 -21 l-24 0 -28 26 -27 25 6 37 5 37 23 17 c13 10 36 18 52 18 l30 0 23 -22z"/> <path d="M6533 10403 c-4 -10 -26 -51 -50 -91 -24 -41 -43 -77 -43 -82 0 -4 -18 -44 -41 -89 -22 -45 -44 -94 -49 -109 -5 -15 -18 -52 -30 -82 -84 -215 -138 -456 -161 -717 -13 -147 -11 -153 36 -153 l35 0 4 23 c3 12 7 56 11 97 14 187 22 236 66 430 25 106 79 282 90 295 5 5 9 15 9 23 0 8 7 30 16 50 23 54 84 184 95 205 6 10 20 37 31 60 12 23 32 56 45 73 35 47 21 83 -35 84 l-23 0 -6 -17z"/> <path d="M11529 10137 l-16 -22 8 -15 c7 -14 43 -93 60 -135 19 -45 67 -206 93 -310 8 -33 19 -79 25 -102 6 -23 16 -72 21 -110 5 -37 14 -97 19 -133 6 -36 11 -100 11 -142 l0 -78 28 0 c16 0 36 6 46 13 l19 14 -6 79 c-17 226 -67 473 -142 698 -43 132 -49 147 -80 224 l-18 42 -26 0 -26 -1 -16 -22z"/> <path d="M8440 9670 l-155 -5 -20 -12 c-23 -13 -12 8 -204 -385 -82 -168 -155 -309 -161 -313 l-12 -7 -13 13 c-7 8 -78 142 -157 299 -165 325 -182 356 -211 388 l-20 22 -177 0 -177 0 -16 -18 -17 -19 0 -625 0 -626 17 -13 16 -14 113 -3 112 -4 22 22 22 22 -8 347 c-5 190 -9 375 -9 411 l0 65 20 3 20 3 28 -58 c86 -180 298 -582 321 -606 l25 -29 95 4 94 3 21 19 c11 10 39 58 62 105 99 207 255 519 277 554 l23 38 14 -11 14 -12 -6 -427 -6 -428 14 -9 c8 -5 68 -8 134 -7 l120 2 18 22 18 23 -6 35 c-3 20 -7 295 -9 611 -2 316 -7 583 -11 593 -7 17 -48 40 -63 35 -4 -1 -77 -4 -162 -8z"/> <path d="M8912 9672 l-12 -8 -1 -643 0 -644 11 -11 11 -11 112 -3 112 -4 22 18 23 19 1 628 1 629 -18 19 -17 19 -116 0 c-64 0 -122 -4 -129 -8z"/> <path d="M9655 9656 c-73 -23 -124 -63 -194 -152 -26 -32 -49 -98 -61 -167 l-13 -78 13 -72 13 -72 29 -56 c35 -67 86 -117 153 -150 l50 -24 461 -5 461 -5 17 -14 c27 -23 46 -67 46 -107 l0 -36 -35 -35 -36 -36 -552 4 -552 4 -22 -13 -23 -13 0 -118 0 -118 19 -17 18 -16 584 2 584 3 68 34 69 34 49 56 c27 30 49 60 49 66 0 6 5 16 12 23 6 6 20 38 30 69 l18 58 0 71 0 72 -15 38 c-54 137 -155 235 -269 263 l-50 12 -395 -1 c-218 -1 -408 -1 -423 -1 l-26 1 -31 31 -31 31 0 49 0 49 29 32 29 33 561 -4 561 -4 20 18 20 18 0 107 0 106 -14 20 -14 19 -584 2 -583 2 -40 -13z"/> <path d="M6169 8849 l-11 -22 6 -96 c7 -95 26 -214 47 -301 7 -25 15 -63 19 -85 33 -178 186 -562 301 -757 17 -29 39 -67 49 -85 9 -18 27 -45 38 -60 12 -15 52 -68 89 -118 85 -115 226 -278 258 -299 l25 -17 25 18 c34 25 35 24 -59 126 -329 359 -552 789 -651 1252 -9 44 -21 97 -26 117 -5 20 -14 87 -20 148 -6 61 -13 130 -17 153 l-7 42 -27 3 -27 3 -12 -22z"/> <path d="M11726 8654 c-3 -9 -6 -34 -6 -56 0 -82 -111 -506 -142 -542 -38 -46 25 -113 64 -68 37 41 136 390 167 586 l10 59 -10 19 -10 18 -33 0 -34 0 -6 -16z"/> <path d="M10800 8163 c-43 -22 -60 -38 -89 -85 l-23 -38 -328 0 -328 0 -11 -14 -11 -13 4 -70 c5 -77 21 -120 46 -128 9 -3 43 -31 76 -63 32 -31 104 -99 159 -150 l100 -94 0 -77 0 -77 19 -35 c24 -45 74 -79 125 -86 l41 -6 32 13 c43 17 65 37 94 82 l24 38 0 35 c0 71 -54 141 -124 165 l-37 12 -45 -7 -45 -6 -122 114 c-259 243 -270 256 -232 271 20 7 575 -5 575 -13 0 -15 69 -78 103 -94 69 -31 140 -9 197 63 l32 40 0 60 0 59 -20 33 c-48 76 -138 106 -212 71z m117 -105 l23 -21 0 -33 0 -33 -27 -26 -28 -25 -25 0 c-14 0 -36 9 -49 19 l-23 18 -2 42 -1 42 25 19 c14 11 38 20 54 20 l30 0 23 -22z m-318 -598 c10 -5 24 -22 30 -39 l13 -29 -11 -21 c-7 -11 -25 -28 -42 -37 l-31 -16 -30 13 c-34 14 -50 47 -42 88 l6 29 22 10 c27 14 63 15 85 2z"/> <path d="M7065 8156 c-42 -19 -81 -64 -93 -107 l-10 -37 8 -41 8 -42 29 -37 30 -37 49 -18 49 -19 53 18 53 18 24 30 c13 17 31 39 39 48 l15 17 53 -3 c29 -2 153 -4 276 -5 l222 -1 0 -21 0 -20 -72 -72 c-40 -40 -120 -116 -178 -170 l-105 -97 -46 6 -47 6 -38 -12 c-153 -50 -146 -278 9 -329 l37 -13 48 18 c57 21 88 47 113 96 20 40 26 113 9 123 -5 3 -10 17 -10 30 l0 24 28 21 c15 12 83 74 151 138 68 65 142 130 163 146 l39 28 -3 97 -3 96 -327 3 -327 2 -12 23 c-49 93 -147 132 -234 93z m115 -91 l30 -15 6 -27 c9 -36 -6 -71 -38 -91 l-27 -16 -27 9 c-15 6 -36 22 -47 37 l-20 26 7 26 c14 57 63 79 116 51z m300 -600 c33 -17 44 -43 35 -84 l-6 -28 -34 -19 -34 -18 -36 17 -35 17 0 44 0 45 26 20 c32 25 46 26 84 6z"/> <path d="M8479 8034 l-9 -11 -2 -338 -3 -339 -34 -23 c-19 -13 -46 -39 -60 -59 l-25 -35 0 -63 0 -64 17 -25 c9 -14 37 -40 62 -57 l45 -31 0 -224 0 -225 -22 0 c-13 0 -53 7 -90 16 l-67 16 -25 -6 c-26 -6 -40 -33 -31 -58 8 -22 199 -68 278 -68 l27 0 10 26 10 25 0 249 0 249 45 31 45 31 20 39 20 39 0 43 0 43 -25 38 c-14 20 -44 49 -65 62 l-40 25 0 293 0 293 12 12 12 12 89 0 c48 0 96 -4 105 -9 l17 -9 0 -819 -1 -818 -53 -3 c-96 -6 -387 42 -526 85 -124 39 -232 74 -250 82 -11 5 -58 26 -105 47 -71 31 -164 78 -275 138 -71 39 -269 178 -334 235 -27 23 -43 26 -72 11 l-19 -11 0 -22 1 -22 87 -63 c141 -103 211 -152 216 -152 3 0 24 -13 48 -29 98 -66 390 -205 528 -251 120 -40 291 -84 392 -100 40 -6 107 -18 148 -25 41 -8 121 -15 178 -16 l104 -1 9 9 10 10 4 901 4 901 -12 9 -12 10 -188 4 -189 3 -9 -11z m94 -809 l27 -26 0 -30 0 -30 -25 -24 -24 -25 -30 0 c-43 0 -60 9 -76 41 l-15 28 11 28 c6 15 18 36 26 45 l16 18 31 0 31 0 28 -25z"/> <path d="M11453 7753 c-17 -32 -43 -80 -60 -108 -16 -27 -32 -57 -36 -65 -26 -56 -131 -203 -245 -344 -76 -93 -268 -280 -377 -367 -157 -126 -427 -288 -590 -354 -16 -7 -48 -21 -70 -31 l-40 -19 -3 -18 c-2 -10 2 -24 8 -32 24 -30 63 -19 225 62 66 32 81 40 123 62 9 6 35 20 57 32 22 11 59 34 83 50 24 16 45 29 47 29 5 0 146 101 155 110 3 3 25 21 50 40 214 163 439 408 591 645 101 157 179 299 179 328 l0 17 -26 10 c-38 15 -40 14 -71 -47z"/> <path d="M9795 6401 c-20 -17 -146 -52 -270 -73 -33 -6 -78 -15 -100 -22 l-40 -11 -3 -23 c-2 -13 2 -30 9 -39 l13 -15 67 6 c37 3 111 18 165 32 55 15 115 30 134 34 19 4 50 13 68 20 l32 12 0 25 c0 13 -5 33 -10 44 l-11 19 -22 0 c-13 0 -27 -4 -32 -9z"/> <path d="M5814 11752 c-6 -4 -31 -33 -57 -65 l-47 -58 0 -23 0 -23 30 -34 c17 -19 55 -70 86 -114 30 -44 80 -115 110 -158 29 -43 54 -82 54 -86 0 -5 7 -14 15 -21 8 -7 15 -21 15 -31 l0 -19 -20 0 c-11 0 -37 6 -57 14 -21 7 -63 20 -93 28 -103 29 -175 51 -205 63 -53 21 -119 37 -170 42 l-50 4 -31 -48 c-74 -115 -74 -113 6 -162 56 -35 275 -178 408 -267 41 -27 96 -62 123 -77 l49 -28 36 56 c41 65 40 75 -12 100 -21 10 -63 34 -94 54 -72 47 -91 58 -115 70 -11 5 -36 20 -55 33 -19 13 -43 27 -52 30 -17 7 -45 48 -32 48 4 0 25 -5 48 -11 22 -6 66 -17 96 -25 116 -31 168 -46 247 -71 46 -15 84 -25 86 -22 2 2 18 23 35 46 18 22 35 54 38 70 l6 28 -50 66 c-66 86 -202 295 -202 308 0 16 36 13 50 -4 6 -8 58 -49 113 -92 56 -43 109 -85 117 -93 9 -9 33 -29 54 -45 l39 -29 53 57 c67 72 67 79 -1 115 -30 16 -95 58 -145 93 -89 63 -345 250 -366 268 -17 14 -48 21 -60 13z"/> <path d="M12268 11527 l-38 -22 0 -23 0 -22 56 -76 56 -76 -28 -30 c-16 -16 -39 -35 -51 -41 -22 -12 -143 -93 -302 -204 -46 -32 -89 -66 -95 -76 l-11 -17 27 -48 26 -47 27 -3 26 -3 62 48 c34 27 100 76 147 109 47 34 120 86 164 117 97 71 93 71 146 -14 25 -39 55 -83 67 -98 l22 -26 55 30 c31 16 56 34 56 40 0 12 -78 127 -171 255 -30 41 -81 114 -112 163 l-58 87 -17 0 c-9 -1 -34 -11 -54 -23z"/> <path d="M12470 10342 c-55 -24 -90 -79 -90 -139 l0 -38 19 -28 c10 -16 33 -37 50 -48 l31 -19 41 0 40 0 27 17 c63 40 83 88 68 168 l-7 36 -41 29 -41 30 -41 -1 c-23 0 -48 -3 -56 -7z"/> <path d="M5399 10282 l-44 -41 0 -58 0 -58 20 -27 c57 -76 175 -77 231 -1 45 60 40 121 -14 181 l-30 34 -60 5 -60 6 -43 -41z"/> <path d="M13100 9648 c-19 -5 -46 -11 -60 -14 -91 -19 -230 -45 -315 -59 -128 -21 -192 -32 -232 -40 l-33 -7 0 -88 0 -88 13 -10 c12 -10 83 -34 207 -69 85 -24 139 -40 218 -64 l73 -22 -17 -18 c-9 -10 -35 -22 -58 -28 -22 -5 -72 -19 -111 -31 -38 -11 -120 -33 -181 -49 -61 -15 -116 -31 -123 -35 l-11 -7 0 -84 c0 -46 4 -86 9 -89 4 -3 75 -12 157 -21 82 -9 185 -22 229 -30 44 -8 100 -17 125 -20 25 -3 76 -13 113 -22 l68 -16 13 14 c8 8 19 36 25 62 l12 48 -10 17 -9 17 -94 12 c-51 7 -156 17 -232 22 -76 6 -143 14 -148 19 l-10 10 23 16 c13 9 32 16 43 16 21 0 140 36 168 51 10 5 25 9 34 9 9 0 37 6 63 14 25 8 68 21 96 28 l50 14 8 43 c5 24 6 59 3 77 l-7 33 -52 16 c-60 18 -140 41 -212 60 -27 8 -75 21 -105 29 -30 9 -66 18 -80 21 -14 3 -34 12 -45 20 l-20 16 15 9 c8 5 32 10 53 10 21 0 70 6 110 14 40 8 129 22 199 32 l126 17 6 20 c3 12 3 41 -1 66 l-5 46 -16 13 c-18 14 -23 14 -72 0z"/> <path d="M5091 9484 l-31 -25 -11 -39 -12 -38 7 -35 c8 -44 44 -82 95 -103 l40 -16 35 12 c101 33 141 121 93 205 -28 50 -57 65 -129 65 l-56 0 -31 -26z"/> <path d="M12472 8717 c-15 -18 -29 -82 -37 -162 -3 -38 -16 -124 -27 -190 -12 -66 -22 -133 -22 -150 l-1 -29 75 -12 c119 -18 183 -31 213 -43 16 -6 40 -11 54 -11 15 0 49 -6 77 -14 28 -8 80 -22 116 -31 36 -10 86 -24 113 -33 l47 -16 11 11 c6 6 15 31 20 55 5 24 16 79 25 123 8 44 22 112 29 150 8 39 19 97 25 129 l11 59 -13 12 c-7 7 -35 15 -61 18 l-48 5 -8 -17 c-9 -16 -14 -42 -47 -236 -9 -55 -22 -106 -28 -113 l-12 -12 -49 14 c-28 8 -62 17 -77 20 l-28 6 0 36 c0 20 6 63 14 97 8 34 19 87 25 117 l9 55 -14 23 -15 23 -52 -3 -52 -3 -18 -135 c-10 -74 -20 -145 -23 -157 l-4 -23 -28 0 c-47 1 -136 26 -140 39 -2 7 2 45 11 85 20 93 47 248 47 269 0 20 -34 43 -77 50 l-31 6 -10 -12z"/> <path d="M5385 8590 c-44 -10 -125 -26 -180 -35 -55 -10 -132 -24 -172 -31 -40 -8 -85 -14 -101 -14 -16 0 -42 -4 -58 -9 -16 -5 -41 -12 -56 -15 l-28 -6 0 -15 c0 -9 7 -42 17 -75 l16 -60 24 0 c13 0 45 6 71 14 61 18 174 42 292 61 52 9 114 20 137 26 24 5 74 12 113 15 l71 7 10 19 10 18 -7 38 c-3 20 -13 47 -20 60 l-14 22 -23 -1 c-12 0 -58 -9 -102 -19z"/> <path d="M5489 8290 c-9 -5 -33 -13 -55 -19 -21 -5 -66 -17 -99 -26 -33 -10 -85 -23 -115 -30 -30 -7 -75 -18 -100 -24 -25 -7 -72 -19 -105 -27 -33 -8 -78 -20 -100 -27 l-40 -12 -3 -23 c-2 -12 8 -47 22 -77 l25 -55 38 14 c128 47 397 125 436 126 31 0 19 -17 -96 -137 -63 -65 -150 -156 -195 -203 l-81 -85 -1 -23 c0 -30 39 -123 59 -140 l15 -12 20 6 c12 3 30 9 41 14 26 12 103 39 140 50 17 4 46 14 65 21 19 6 51 17 70 24 19 7 51 18 70 25 19 6 51 16 70 20 19 4 49 13 65 18 17 6 50 17 75 25 l45 14 -2 35 c-2 35 -38 108 -52 108 -10 0 -70 -19 -96 -30 -44 -19 -101 -42 -125 -50 -14 -5 -50 -18 -80 -30 -97 -37 -141 -51 -151 -48 -14 5 78 113 227 267 164 169 155 147 107 279 l-16 42 -31 0 c-17 0 -38 -5 -47 -10z"/> <path d="M12368 8119 c-10 -5 -18 -16 -18 -24 0 -8 -6 -34 -14 -57 -7 -24 -31 -97 -51 -163 -21 -66 -42 -124 -47 -129 -4 -6 -8 -17 -8 -25 -1 -9 -9 -34 -20 -56 -23 -48 -25 -78 -6 -94 20 -17 72 -30 93 -25 l19 5 18 67 c11 37 23 72 28 78 l9 12 32 -8 c45 -11 97 -30 130 -46 16 -8 34 -14 40 -14 7 0 23 -6 37 -13 14 -7 48 -21 75 -31 28 -10 89 -34 137 -53 48 -19 95 -33 105 -31 l17 3 22 55 22 54 -7 19 -7 19 -75 24 c-41 13 -83 28 -94 33 -38 17 -111 41 -124 41 -7 0 -27 6 -44 13 -45 19 -97 37 -132 47 -89 23 -94 31 -64 110 11 30 25 69 29 85 5 17 11 39 15 50 l6 21 -18 16 c-10 8 -34 18 -53 21 l-35 6 -17 -10z"/> <path d="M5739 7583 c-75 -50 -334 -205 -389 -232 -51 -25 -126 -68 -160 -92 l-23 -15 26 -56 27 -57 20 -6 21 -7 75 51 c41 28 77 51 79 51 2 0 21 11 41 25 43 29 41 31 87 -55 75 -141 96 -175 114 -187 l19 -13 42 27 42 27 0 19 c0 11 -32 73 -71 138 l-70 119 5 18 c3 9 36 33 72 52 l66 35 16 -24 c23 -33 100 -169 118 -208 l14 -33 20 0 c10 0 35 9 54 21 l36 21 0 23 c0 13 -17 51 -37 85 -48 77 -95 160 -128 226 -14 28 -33 58 -43 67 l-18 17 -55 -37z"/> <path d="M12099 7447 c-25 -39 -67 -116 -93 -171 l-48 -98 0 -63 0 -63 18 -29 c52 -83 146 -126 236 -109 l34 6 32 31 c17 17 56 67 85 112 30 45 71 97 91 116 l35 34 32 0 32 0 25 -28 24 -28 -6 -40 c-11 -69 -79 -177 -179 -285 l-48 -52 3 -17 c2 -9 12 -21 23 -27 10 -6 37 -21 58 -34 l39 -23 13 11 c16 13 145 206 145 217 0 3 6 14 14 22 8 9 28 44 45 78 l31 61 6 55 7 55 -23 46 c-12 25 -39 61 -60 78 l-38 33 -60 19 -60 19 -47 -19 -47 -19 -49 -55 c-27 -30 -70 -86 -97 -125 -26 -38 -62 -77 -79 -87 l-31 -19 -25 12 c-14 6 -31 24 -37 40 l-12 28 12 38 c17 50 62 133 116 211 24 35 44 72 44 82 l0 19 -46 21 c-65 28 -64 28 -115 -53z"/> <path d="M11821 6993 c-49 -58 -50 -69 -10 -164 45 -107 57 -140 64 -176 l7 -33 -14 -1 c-39 -4 -172 24 -226 47 -35 15 -102 19 -102 7 0 -5 -18 -28 -40 -52 l-40 -45 12 -12 c7 -7 34 -18 61 -23 26 -6 68 -16 95 -22 26 -7 65 -15 87 -19 68 -12 168 -32 207 -42 l36 -8 100 -101 101 -101 14 9 c8 4 33 24 55 44 l42 36 0 20 0 21 -120 97 -120 96 -5 27 c-3 15 -12 51 -20 80 -8 28 -21 76 -29 105 -12 44 -59 203 -72 245 -2 6 -12 12 -23 12 l-19 0 -41 -47z"/> <path d="M5953 7015 c-120 -37 -276 -173 -337 -293 l-18 -34 5 -71 c8 -148 121 -302 270 -370 l38 -17 47 0 47 0 45 21 c125 57 259 186 312 303 l18 38 0 60 0 59 -31 62 c-93 189 -254 287 -396 242z m113 -145 c42 -16 100 -67 133 -115 l29 -43 3 -34 c1 -18 1 -48 0 -65 l-1 -33 -54 -54 c-62 -61 -150 -123 -196 -136 l-31 -9 -37 17 c-55 25 -88 53 -127 112 l-35 52 0 48 0 48 45 60 c85 113 201 178 271 152z"/> <path d="M6475 6442 c-84 -105 -357 -423 -379 -441 -27 -23 -18 -46 34 -90 l51 -43 13 5 c8 3 39 38 70 79 84 110 103 131 113 127 11 -4 83 -63 145 -118 l38 -33 0 -30 0 -29 -32 -45 c-18 -25 -45 -60 -60 -79 -16 -18 -28 -43 -28 -56 l0 -24 52 -38 51 -37 13 11 c8 6 14 16 14 21 0 6 24 47 53 91 70 107 77 120 77 154 l0 29 56 19 56 19 34 40 c70 82 90 165 58 242 -17 41 -49 75 -154 164 -35 30 -87 76 -116 103 -28 26 -59 47 -70 47 l-19 0 -70 -88z m187 -159 c87 -68 107 -91 115 -137 l5 -33 -37 -41 c-20 -23 -45 -44 -55 -47 l-19 -6 -38 20 c-21 11 -50 31 -66 44 -15 14 -43 35 -61 48 -18 12 -39 31 -45 42 l-12 19 26 31 c14 18 40 51 58 74 41 54 40 54 129 -14z"/> <path d="M11350 6478 c-150 -141 -215 -206 -236 -241 l-24 -37 -1 -48 -2 -48 21 -39 c25 -50 56 -84 104 -113 l37 -23 49 -1 48 -1 35 19 c19 10 36 22 39 25 3 3 26 20 52 37 25 18 52 38 60 45 7 7 29 23 49 35 l36 22 36 0 36 0 15 -16 16 -15 0 -34 0 -33 -52 -53 c-60 -59 -245 -209 -258 -209 -5 0 -14 -9 -20 -20 l-11 -20 38 -45 38 -44 20 -1 c11 0 37 15 57 33 20 17 79 70 132 116 109 96 163 153 189 198 l17 31 0 52 0 51 -16 32 c-19 37 -73 97 -88 97 -5 0 -17 7 -27 16 l-18 16 -59 1 -59 0 -59 -36 c-32 -19 -68 -44 -79 -54 -11 -10 -46 -35 -77 -56 l-56 -37 -30 0 -31 0 -20 26 c-12 15 -21 38 -21 52 l0 26 58 55 c31 31 77 72 102 91 75 60 110 92 121 112 l10 19 -37 35 c-21 19 -47 34 -58 34 l-21 0 -55 -52z"/> <path d="M7063 6068 c-31 -77 -202 -407 -269 -518 -18 -30 -34 -64 -36 -74 l-3 -20 34 -23 34 -23 34 0 34 0 74 158 c138 292 140 293 116 42 -6 -69 -16 -160 -21 -203 -12 -101 0 -120 93 -148 l28 -8 77 72 c42 40 85 81 97 92 175 176 217 194 150 65 -18 -36 -46 -90 -61 -120 -15 -30 -45 -83 -66 -117 -49 -77 -47 -88 20 -124 76 -41 68 -49 162 156 60 130 111 240 166 351 l55 111 -7 16 c-6 17 -123 77 -149 77 -8 0 -76 -61 -152 -136 -76 -75 -157 -150 -180 -167 -24 -17 -43 -33 -43 -37 0 -4 -11 -12 -24 -18 l-24 -11 -5 14 c-5 12 5 137 33 405 6 52 10 109 10 127 l0 32 -63 36 c-35 19 -71 35 -81 35 l-16 0 -17 -42z"/> <path d="M10670 5996 c-20 -13 -41 -30 -48 -39 l-13 -15 45 -93 c24 -52 47 -101 50 -109 3 -8 10 -22 15 -30 8 -12 66 -149 87 -205 l6 -15 -16 0 c-20 0 -58 21 -69 38 -4 6 -12 12 -18 12 -5 0 -55 35 -111 78 -55 42 -113 86 -128 97 -15 11 -51 39 -80 63 -61 49 -65 50 -141 16 l-58 -26 -6 -19 -6 -18 36 -76 c19 -41 35 -80 35 -86 0 -6 6 -23 14 -37 8 -15 21 -45 29 -67 8 -22 28 -74 45 -115 53 -132 80 -204 90 -235 l9 -30 17 -3 c9 -2 41 7 71 19 l55 23 0 20 c0 11 -13 48 -29 81 -30 63 -53 112 -95 210 -15 33 -33 73 -41 88 -15 29 -20 77 -9 77 4 0 23 -15 43 -32 21 -18 75 -60 121 -93 46 -33 127 -92 180 -131 117 -86 117 -86 166 -63 21 10 44 18 49 19 6 0 23 11 40 24 l29 23 -33 74 c-18 41 -39 88 -46 104 -7 17 -19 46 -27 65 -8 19 -30 69 -48 110 -18 41 -39 89 -46 105 -7 17 -24 56 -38 87 -15 31 -26 61 -26 66 0 15 -41 62 -53 61 -7 0 -28 -11 -47 -23z"/> <path d="M8080 5654 c-9 -11 -33 -46 -55 -79 -22 -33 -43 -61 -47 -63 -5 -2 -8 -8 -8 -13 0 -5 -26 -45 -57 -88 -109 -150 -148 -204 -187 -260 -21 -31 -42 -58 -47 -61 -4 -3 -10 -17 -14 -31 l-6 -26 23 -15 c27 -18 108 -31 124 -20 5 4 21 25 34 47 37 61 64 65 195 30 28 -8 76 -19 107 -25 67 -13 75 -21 88 -91 13 -67 22 -75 91 -83 l57 -6 10 13 10 12 -9 60 c-11 75 -27 169 -44 260 -13 67 -31 175 -56 334 l-11 73 -19 19 -19 19 -29 0 c-15 0 -48 3 -72 6 l-44 6 -15 -18z m79 -196 c6 -18 15 -68 21 -111 5 -44 15 -97 20 -118 6 -22 8 -44 4 -50 l-6 -10 -42 6 c-22 4 -72 15 -111 25 l-70 18 -3 15 c-3 17 154 257 168 257 5 0 13 -15 19 -32z"/> <path d="M9750 5660 c-248 -40 -336 -165 -290 -410 33 -171 83 -270 165 -325 l30 -20 130 1 130 1 65 27 c124 51 167 95 193 197 l14 54 -8 60 c-30 227 -90 352 -191 403 l-45 22 -74 -1 c-41 -1 -94 -5 -119 -9z m145 -130 c76 -29 135 -169 135 -321 l0 -56 -21 -27 c-51 -64 -232 -109 -296 -73 -58 33 -122 200 -123 321 l0 49 39 37 40 38 63 20 c70 23 124 27 163 12z"/> <path d="M8498 5589 l-18 -10 0 -52 0 -53 12 -12 12 -12 86 0 c47 0 91 -4 98 -8 l13 -9 -11 -151 c-5 -83 -14 -182 -19 -219 -5 -37 -12 -98 -16 -134 l-5 -66 12 -10 c7 -6 36 -13 64 -16 l52 -6 16 12 16 12 11 155 c6 85 14 209 17 275 4 66 11 126 15 132 l8 12 108 -6 108 -6 6 33 c11 52 8 87 -8 100 l-15 13 -218 8 c-119 5 -235 13 -257 18 -50 13 -65 13 -87 0z"/> <path d="M9161 5571 l-14 -9 12 -153 c6 -85 16 -201 21 -259 6 -58 10 -145 10 -192 0 -48 3 -93 6 -102 l6 -16 58 0 c32 0 65 3 74 6 l16 6 0 39 c0 22 -6 97 -14 167 -8 70 -20 195 -26 277 -7 83 -15 170 -19 195 l-6 45 -55 3 c-30 1 -61 -2 -69 -7z"/> </g> </svg> 